<?xml version="1.0" encoding="utf-8" standalone="no"?>
<!DOCTYPE svg PUBLIC "-//W3C//DTD SVG 1.1//EN"
  "http://www.w3.org/Graphics/SVG/1.1/DTD/svg11.dtd">
<svg xmlns:xlink="http://www.w3.org/1999/xlink" width="2981.6pt" height="1830.34pt" viewBox="0 0 2981.6 1830.34" xmlns="http://www.w3.org/2000/svg" version="1.1">
 <metadata>
  <rdf:RDF xmlns:dc="http://purl.org/dc/elements/1.1/" xmlns:cc="http://creativecommons.org/ns#" xmlns:rdf="http://www.w3.org/1999/02/22-rdf-syntax-ns#">
   <cc:Work>
    <dc:type rdf:resource="http://purl.org/dc/dcmitype/StillImage"/>
    <dc:date>2025-05-02T01:03:04.815440</dc:date>
    <dc:format>image/svg+xml</dc:format>
    <dc:creator>
     <cc:Agent>
      <dc:title>Matplotlib v3.10.1, https://matplotlib.org/</dc:title>
     </cc:Agent>
    </dc:creator>
   </cc:Work>
  </rdf:RDF>
 </metadata>
 <defs>
  <style type="text/css">*{stroke-linejoin: round; stroke-linecap: butt}</style>
 </defs>
 <g id="figure_1">
  <g id="patch_1">
   <path d="M 0 1830.34 
L 2981.6 1830.34 
L 2981.6 -0 
L 0 -0 
z
" style="fill: #ffffff"/>
  </g>
  <g id="axes_1">
   <g id="patch_2">
    <path d="M 514.95 1465.94 
L 2974.4 1465.94 
L 2974.4 7.2 
L 514.95 7.2 
z
" style="fill: #ffffff"/>
   </g>
   <g id="matplotlib.axis_1">
    <g id="xtick_1">
     <g id="line2d_1">
      <defs>
       <path id="m0c298cd586" d="M 0 0 
L 0 3.5 
" style="stroke: #000000; stroke-width: 0.8"/>
      </defs>
      <g>
       <use xlink:href="#m0c298cd586" x="619.744863" y="1465.94" style="stroke: #000000; stroke-width: 0.8"/>
      </g>
     </g>
     <g id="text_1">
      <!-- 0 -->
      <g transform="translate(568.844863 1631.015) scale(1.6 -1.6)">
       <defs>
        <path id="DejaVuSans-30" d="M 2034 4250 
Q 1547 4250 1301 3770 
Q 1056 3291 1056 2328 
Q 1056 1369 1301 889 
Q 1547 409 2034 409 
Q 2525 409 2770 889 
Q 3016 1369 3016 2328 
Q 3016 3291 2770 3770 
Q 2525 4250 2034 4250 
z
M 2034 4750 
Q 2819 4750 3233 4129 
Q 3647 3509 3647 2328 
Q 3647 1150 3233 529 
Q 2819 -91 2034 -91 
Q 1250 -91 836 529 
Q 422 1150 422 2328 
Q 422 3509 836 4129 
Q 1250 4750 2034 4750 
z
" transform="scale(0.015625)"/>
       </defs>
       <use xlink:href="#DejaVuSans-30"/>
      </g>
     </g>
    </g>
    <g id="xtick_2">
     <g id="line2d_2">
      <g>
       <use xlink:href="#m0c298cd586" x="1118.883609" y="1465.94" style="stroke: #000000; stroke-width: 0.8"/>
      </g>
     </g>
     <g id="text_2">
      <!-- 200 -->
      <g transform="translate(966.183609 1631.015) scale(1.6 -1.6)">
       <defs>
        <path id="DejaVuSans-32" d="M 1228 531 
L 3431 531 
L 3431 0 
L 469 0 
L 469 531 
Q 828 903 1448 1529 
Q 2069 2156 2228 2338 
Q 2531 2678 2651 2914 
Q 2772 3150 2772 3378 
Q 2772 3750 2511 3984 
Q 2250 4219 1831 4219 
Q 1534 4219 1204 4116 
Q 875 4013 500 3803 
L 500 4441 
Q 881 4594 1212 4672 
Q 1544 4750 1819 4750 
Q 2544 4750 2975 4387 
Q 3406 4025 3406 3419 
Q 3406 3131 3298 2873 
Q 3191 2616 2906 2266 
Q 2828 2175 2409 1742 
Q 1991 1309 1228 531 
z
" transform="scale(0.015625)"/>
       </defs>
       <use xlink:href="#DejaVuSans-32"/>
       <use xlink:href="#DejaVuSans-30" transform="translate(63.623047 0)"/>
       <use xlink:href="#DejaVuSans-30" transform="translate(127.246094 0)"/>
      </g>
     </g>
    </g>
    <g id="xtick_3">
     <g id="line2d_3">
      <g>
       <use xlink:href="#m0c298cd586" x="1618.022354" y="1465.94" style="stroke: #000000; stroke-width: 0.8"/>
      </g>
     </g>
     <g id="text_3">
      <!-- 400 -->
      <g transform="translate(1465.322354 1631.015) scale(1.6 -1.6)">
       <defs>
        <path id="DejaVuSans-34" d="M 2419 4116 
L 825 1625 
L 2419 1625 
L 2419 4116 
z
M 2253 4666 
L 3047 4666 
L 3047 1625 
L 3713 1625 
L 3713 1100 
L 3047 1100 
L 3047 0 
L 2419 0 
L 2419 1100 
L 313 1100 
L 313 1709 
L 2253 4666 
z
" transform="scale(0.015625)"/>
       </defs>
       <use xlink:href="#DejaVuSans-34"/>
       <use xlink:href="#DejaVuSans-30" transform="translate(63.623047 0)"/>
       <use xlink:href="#DejaVuSans-30" transform="translate(127.246094 0)"/>
      </g>
     </g>
    </g>
    <g id="xtick_4">
     <g id="line2d_4">
      <g>
       <use xlink:href="#m0c298cd586" x="2117.1611" y="1465.94" style="stroke: #000000; stroke-width: 0.8"/>
      </g>
     </g>
     <g id="text_4">
      <!-- 600 -->
      <g transform="translate(1964.4611 1631.015) scale(1.6 -1.6)">
       <defs>
        <path id="DejaVuSans-36" d="M 2113 2584 
Q 1688 2584 1439 2293 
Q 1191 2003 1191 1497 
Q 1191 994 1439 701 
Q 1688 409 2113 409 
Q 2538 409 2786 701 
Q 3034 994 3034 1497 
Q 3034 2003 2786 2293 
Q 2538 2584 2113 2584 
z
M 3366 4563 
L 3366 3988 
Q 3128 4100 2886 4159 
Q 2644 4219 2406 4219 
Q 1781 4219 1451 3797 
Q 1122 3375 1075 2522 
Q 1259 2794 1537 2939 
Q 1816 3084 2150 3084 
Q 2853 3084 3261 2657 
Q 3669 2231 3669 1497 
Q 3669 778 3244 343 
Q 2819 -91 2113 -91 
Q 1303 -91 875 529 
Q 447 1150 447 2328 
Q 447 3434 972 4092 
Q 1497 4750 2381 4750 
Q 2619 4750 2861 4703 
Q 3103 4656 3366 4563 
z
" transform="scale(0.015625)"/>
       </defs>
       <use xlink:href="#DejaVuSans-36"/>
       <use xlink:href="#DejaVuSans-30" transform="translate(63.623047 0)"/>
       <use xlink:href="#DejaVuSans-30" transform="translate(127.246094 0)"/>
      </g>
     </g>
    </g>
    <g id="xtick_5">
     <g id="line2d_5">
      <g>
       <use xlink:href="#m0c298cd586" x="2616.299846" y="1465.94" style="stroke: #000000; stroke-width: 0.8"/>
      </g>
     </g>
     <g id="text_5">
      <!-- 800 -->
      <g transform="translate(2463.599846 1631.015) scale(1.6 -1.6)">
       <defs>
        <path id="DejaVuSans-38" d="M 2034 2216 
Q 1584 2216 1326 1975 
Q 1069 1734 1069 1313 
Q 1069 891 1326 650 
Q 1584 409 2034 409 
Q 2484 409 2743 651 
Q 3003 894 3003 1313 
Q 3003 1734 2745 1975 
Q 2488 2216 2034 2216 
z
M 1403 2484 
Q 997 2584 770 2862 
Q 544 3141 544 3541 
Q 544 4100 942 4425 
Q 1341 4750 2034 4750 
Q 2731 4750 3128 4425 
Q 3525 4100 3525 3541 
Q 3525 3141 3298 2862 
Q 3072 2584 2669 2484 
Q 3125 2378 3379 2068 
Q 3634 1759 3634 1313 
Q 3634 634 3220 271 
Q 2806 -91 2034 -91 
Q 1263 -91 848 271 
Q 434 634 434 1313 
Q 434 1759 690 2068 
Q 947 2378 1403 2484 
z
M 1172 3481 
Q 1172 3119 1398 2916 
Q 1625 2713 2034 2713 
Q 2441 2713 2670 2916 
Q 2900 3119 2900 3481 
Q 2900 3844 2670 4047 
Q 2441 4250 2034 4250 
Q 1625 4250 1398 4047 
Q 1172 3844 1172 3481 
z
" transform="scale(0.015625)"/>
       </defs>
       <use xlink:href="#DejaVuSans-38"/>
       <use xlink:href="#DejaVuSans-30" transform="translate(63.623047 0)"/>
       <use xlink:href="#DejaVuSans-30" transform="translate(127.246094 0)"/>
      </g>
     </g>
    </g>
    <g id="text_6">
     <!-- Time (s) -->
     <g transform="translate(1419.4125 1789.865) scale(1.6 -1.6)">
      <defs>
       <path id="DejaVuSans-54" d="M -19 4666 
L 3928 4666 
L 3928 4134 
L 2272 4134 
L 2272 0 
L 1638 0 
L 1638 4134 
L -19 4134 
L -19 4666 
z
" transform="scale(0.015625)"/>
       <path id="DejaVuSans-69" d="M 603 3500 
L 1178 3500 
L 1178 0 
L 603 0 
L 603 3500 
z
M 603 4863 
L 1178 4863 
L 1178 4134 
L 603 4134 
L 603 4863 
z
" transform="scale(0.015625)"/>
       <path id="DejaVuSans-6d" d="M 3328 2828 
Q 3544 3216 3844 3400 
Q 4144 3584 4550 3584 
Q 5097 3584 5394 3201 
Q 5691 2819 5691 2113 
L 5691 0 
L 5113 0 
L 5113 2094 
Q 5113 2597 4934 2840 
Q 4756 3084 4391 3084 
Q 3944 3084 3684 2787 
Q 3425 2491 3425 1978 
L 3425 0 
L 2847 0 
L 2847 2094 
Q 2847 2600 2669 2842 
Q 2491 3084 2119 3084 
Q 1678 3084 1418 2786 
Q 1159 2488 1159 1978 
L 1159 0 
L 581 0 
L 581 3500 
L 1159 3500 
L 1159 2956 
Q 1356 3278 1631 3431 
Q 1906 3584 2284 3584 
Q 2666 3584 2933 3390 
Q 3200 3197 3328 2828 
z
" transform="scale(0.015625)"/>
       <path id="DejaVuSans-65" d="M 3597 1894 
L 3597 1613 
L 953 1613 
Q 991 1019 1311 708 
Q 1631 397 2203 397 
Q 2534 397 2845 478 
Q 3156 559 3463 722 
L 3463 178 
Q 3153 47 2828 -22 
Q 2503 -91 2169 -91 
Q 1331 -91 842 396 
Q 353 884 353 1716 
Q 353 2575 817 3079 
Q 1281 3584 2069 3584 
Q 2775 3584 3186 3129 
Q 3597 2675 3597 1894 
z
M 3022 2063 
Q 3016 2534 2758 2815 
Q 2500 3097 2075 3097 
Q 1594 3097 1305 2825 
Q 1016 2553 972 2059 
L 3022 2063 
z
" transform="scale(0.015625)"/>
       <path id="DejaVuSans-20" transform="scale(0.015625)"/>
       <path id="DejaVuSans-28" d="M 1984 4856 
Q 1566 4138 1362 3434 
Q 1159 2731 1159 2009 
Q 1159 1288 1364 580 
Q 1569 -128 1984 -844 
L 1484 -844 
Q 1016 -109 783 600 
Q 550 1309 550 2009 
Q 550 2706 781 3412 
Q 1013 4119 1484 4856 
L 1984 4856 
z
" transform="scale(0.015625)"/>
       <path id="DejaVuSans-73" d="M 2834 3397 
L 2834 2853 
Q 2591 2978 2328 3040 
Q 2066 3103 1784 3103 
Q 1356 3103 1142 2972 
Q 928 2841 928 2578 
Q 928 2378 1081 2264 
Q 1234 2150 1697 2047 
L 1894 2003 
Q 2506 1872 2764 1633 
Q 3022 1394 3022 966 
Q 3022 478 2636 193 
Q 2250 -91 1575 -91 
Q 1294 -91 989 -36 
Q 684 19 347 128 
L 347 722 
Q 666 556 975 473 
Q 1284 391 1588 391 
Q 1994 391 2212 530 
Q 2431 669 2431 922 
Q 2431 1156 2273 1281 
Q 2116 1406 1581 1522 
L 1381 1569 
Q 847 1681 609 1914 
Q 372 2147 372 2553 
Q 372 3047 722 3315 
Q 1072 3584 1716 3584 
Q 2034 3584 2315 3537 
Q 2597 3491 2834 3397 
z
" transform="scale(0.015625)"/>
       <path id="DejaVuSans-29" d="M 513 4856 
L 1013 4856 
Q 1481 4119 1714 3412 
Q 1947 2706 1947 2009 
Q 1947 1309 1714 600 
Q 1481 -109 1013 -844 
L 513 -844 
Q 928 -128 1133 580 
Q 1338 1288 1338 2009 
Q 1338 2731 1133 3434 
Q 928 4138 513 4856 
z
" transform="scale(0.015625)"/>
      </defs>
      <use xlink:href="#DejaVuSans-54"/>
      <use xlink:href="#DejaVuSans-69" transform="translate(57.958984 0)"/>
      <use xlink:href="#DejaVuSans-6d" transform="translate(85.742188 0)"/>
      <use xlink:href="#DejaVuSans-65" transform="translate(183.154297 0)"/>
      <use xlink:href="#DejaVuSans-20" transform="translate(244.677734 0)"/>
      <use xlink:href="#DejaVuSans-28" transform="translate(276.464844 0)"/>
      <use xlink:href="#DejaVuSans-73" transform="translate(315.478516 0)"/>
      <use xlink:href="#DejaVuSans-29" transform="translate(367.578125 0)"/>
     </g>
    </g>
   </g>
   <g id="matplotlib.axis_2">
    <g id="ytick_1">
     <g id="line2d_6">
      <path d="M 514.95 1465.94 
L 2974.4 1465.94 
" clip-path="url(#pb4f7356c7a)" style="fill: none; stroke-dasharray: 2.96,1.28; stroke-dashoffset: 0; stroke: #b0b0b0; stroke-width: 0.8"/>
     </g>
     <g id="line2d_7">
      <defs>
       <path id="m03b5a55ec8" d="M 0 0 
L -3.5 0 
" style="stroke: #000000; stroke-width: 0.8"/>
      </defs>
      <g>
       <use xlink:href="#m03b5a55ec8" x="514.95" y="1465.94" style="stroke: #000000; stroke-width: 0.8"/>
      </g>
     </g>
     <g id="text_7">
      <!-- 0 -->
      <g transform="translate(369.65 1526.7275) scale(1.6 -1.6)">
       <use xlink:href="#DejaVuSans-30"/>
      </g>
     </g>
    </g>
    <g id="ytick_2">
     <g id="line2d_8">
      <path d="M 514.95 788.62291 
L 2974.4 788.62291 
" clip-path="url(#pb4f7356c7a)" style="fill: none; stroke-dasharray: 2.96,1.28; stroke-dashoffset: 0; stroke: #b0b0b0; stroke-width: 0.8"/>
     </g>
     <g id="line2d_9">
      <g>
       <use xlink:href="#m03b5a55ec8" x="514.95" y="788.62291" style="stroke: #000000; stroke-width: 0.8"/>
      </g>
     </g>
     <g id="text_8">
      <!-- 50 -->
      <g transform="translate(267.85 849.41041) scale(1.6 -1.6)">
       <defs>
        <path id="DejaVuSans-35" d="M 691 4666 
L 3169 4666 
L 3169 4134 
L 1269 4134 
L 1269 2991 
Q 1406 3038 1543 3061 
Q 1681 3084 1819 3084 
Q 2600 3084 3056 2656 
Q 3513 2228 3513 1497 
Q 3513 744 3044 326 
Q 2575 -91 1722 -91 
Q 1428 -91 1123 -41 
Q 819 9 494 109 
L 494 744 
Q 775 591 1075 516 
Q 1375 441 1709 441 
Q 2250 441 2565 725 
Q 2881 1009 2881 1497 
Q 2881 1984 2565 2268 
Q 2250 2553 1709 2553 
Q 1456 2553 1204 2497 
Q 953 2441 691 2322 
L 691 4666 
z
" transform="scale(0.015625)"/>
       </defs>
       <use xlink:href="#DejaVuSans-35"/>
       <use xlink:href="#DejaVuSans-30" transform="translate(63.623047 0)"/>
      </g>
     </g>
    </g>
    <g id="ytick_3">
     <g id="line2d_10">
      <path d="M 514.95 111.30582 
L 2974.4 111.30582 
" clip-path="url(#pb4f7356c7a)" style="fill: none; stroke-dasharray: 2.96,1.28; stroke-dashoffset: 0; stroke: #b0b0b0; stroke-width: 0.8"/>
     </g>
     <g id="line2d_11">
      <g>
       <use xlink:href="#m03b5a55ec8" x="514.95" y="111.30582" style="stroke: #000000; stroke-width: 0.8"/>
      </g>
     </g>
     <g id="text_9">
      <!-- 100 -->
      <g transform="translate(166.05 172.09332) scale(1.6 -1.6)">
       <defs>
        <path id="DejaVuSans-31" d="M 794 531 
L 1825 531 
L 1825 4091 
L 703 3866 
L 703 4441 
L 1819 4666 
L 2450 4666 
L 2450 531 
L 3481 531 
L 3481 0 
L 794 0 
L 794 531 
z
" transform="scale(0.015625)"/>
       </defs>
       <use xlink:href="#DejaVuSans-31"/>
       <use xlink:href="#DejaVuSans-30" transform="translate(63.623047 0)"/>
       <use xlink:href="#DejaVuSans-30" transform="translate(127.246094 0)"/>
      </g>
     </g>
    </g>
    <g id="text_10">
     <!-- Throughput (MB/s) -->
     <g transform="translate(128.775 1481.595) rotate(-90) scale(1.6 -1.6)">
      <defs>
       <path id="DejaVuSans-68" d="M 3513 2113 
L 3513 0 
L 2938 0 
L 2938 2094 
Q 2938 2591 2744 2837 
Q 2550 3084 2163 3084 
Q 1697 3084 1428 2787 
Q 1159 2491 1159 1978 
L 1159 0 
L 581 0 
L 581 4863 
L 1159 4863 
L 1159 2956 
Q 1366 3272 1645 3428 
Q 1925 3584 2291 3584 
Q 2894 3584 3203 3211 
Q 3513 2838 3513 2113 
z
" transform="scale(0.015625)"/>
       <path id="DejaVuSans-72" d="M 2631 2963 
Q 2534 3019 2420 3045 
Q 2306 3072 2169 3072 
Q 1681 3072 1420 2755 
Q 1159 2438 1159 1844 
L 1159 0 
L 581 0 
L 581 3500 
L 1159 3500 
L 1159 2956 
Q 1341 3275 1631 3429 
Q 1922 3584 2338 3584 
Q 2397 3584 2469 3576 
Q 2541 3569 2628 3553 
L 2631 2963 
z
" transform="scale(0.015625)"/>
       <path id="DejaVuSans-6f" d="M 1959 3097 
Q 1497 3097 1228 2736 
Q 959 2375 959 1747 
Q 959 1119 1226 758 
Q 1494 397 1959 397 
Q 2419 397 2687 759 
Q 2956 1122 2956 1747 
Q 2956 2369 2687 2733 
Q 2419 3097 1959 3097 
z
M 1959 3584 
Q 2709 3584 3137 3096 
Q 3566 2609 3566 1747 
Q 3566 888 3137 398 
Q 2709 -91 1959 -91 
Q 1206 -91 779 398 
Q 353 888 353 1747 
Q 353 2609 779 3096 
Q 1206 3584 1959 3584 
z
" transform="scale(0.015625)"/>
       <path id="DejaVuSans-75" d="M 544 1381 
L 544 3500 
L 1119 3500 
L 1119 1403 
Q 1119 906 1312 657 
Q 1506 409 1894 409 
Q 2359 409 2629 706 
Q 2900 1003 2900 1516 
L 2900 3500 
L 3475 3500 
L 3475 0 
L 2900 0 
L 2900 538 
Q 2691 219 2414 64 
Q 2138 -91 1772 -91 
Q 1169 -91 856 284 
Q 544 659 544 1381 
z
M 1991 3584 
L 1991 3584 
z
" transform="scale(0.015625)"/>
       <path id="DejaVuSans-67" d="M 2906 1791 
Q 2906 2416 2648 2759 
Q 2391 3103 1925 3103 
Q 1463 3103 1205 2759 
Q 947 2416 947 1791 
Q 947 1169 1205 825 
Q 1463 481 1925 481 
Q 2391 481 2648 825 
Q 2906 1169 2906 1791 
z
M 3481 434 
Q 3481 -459 3084 -895 
Q 2688 -1331 1869 -1331 
Q 1566 -1331 1297 -1286 
Q 1028 -1241 775 -1147 
L 775 -588 
Q 1028 -725 1275 -790 
Q 1522 -856 1778 -856 
Q 2344 -856 2625 -561 
Q 2906 -266 2906 331 
L 2906 616 
Q 2728 306 2450 153 
Q 2172 0 1784 0 
Q 1141 0 747 490 
Q 353 981 353 1791 
Q 353 2603 747 3093 
Q 1141 3584 1784 3584 
Q 2172 3584 2450 3431 
Q 2728 3278 2906 2969 
L 2906 3500 
L 3481 3500 
L 3481 434 
z
" transform="scale(0.015625)"/>
       <path id="DejaVuSans-70" d="M 1159 525 
L 1159 -1331 
L 581 -1331 
L 581 3500 
L 1159 3500 
L 1159 2969 
Q 1341 3281 1617 3432 
Q 1894 3584 2278 3584 
Q 2916 3584 3314 3078 
Q 3713 2572 3713 1747 
Q 3713 922 3314 415 
Q 2916 -91 2278 -91 
Q 1894 -91 1617 61 
Q 1341 213 1159 525 
z
M 3116 1747 
Q 3116 2381 2855 2742 
Q 2594 3103 2138 3103 
Q 1681 3103 1420 2742 
Q 1159 2381 1159 1747 
Q 1159 1113 1420 752 
Q 1681 391 2138 391 
Q 2594 391 2855 752 
Q 3116 1113 3116 1747 
z
" transform="scale(0.015625)"/>
       <path id="DejaVuSans-74" d="M 1172 4494 
L 1172 3500 
L 2356 3500 
L 2356 3053 
L 1172 3053 
L 1172 1153 
Q 1172 725 1289 603 
Q 1406 481 1766 481 
L 2356 481 
L 2356 0 
L 1766 0 
Q 1100 0 847 248 
Q 594 497 594 1153 
L 594 3053 
L 172 3053 
L 172 3500 
L 594 3500 
L 594 4494 
L 1172 4494 
z
" transform="scale(0.015625)"/>
       <path id="DejaVuSans-4d" d="M 628 4666 
L 1569 4666 
L 2759 1491 
L 3956 4666 
L 4897 4666 
L 4897 0 
L 4281 0 
L 4281 4097 
L 3078 897 
L 2444 897 
L 1241 4097 
L 1241 0 
L 628 0 
L 628 4666 
z
" transform="scale(0.015625)"/>
       <path id="DejaVuSans-42" d="M 1259 2228 
L 1259 519 
L 2272 519 
Q 2781 519 3026 730 
Q 3272 941 3272 1375 
Q 3272 1813 3026 2020 
Q 2781 2228 2272 2228 
L 1259 2228 
z
M 1259 4147 
L 1259 2741 
L 2194 2741 
Q 2656 2741 2882 2914 
Q 3109 3088 3109 3444 
Q 3109 3797 2882 3972 
Q 2656 4147 2194 4147 
L 1259 4147 
z
M 628 4666 
L 2241 4666 
Q 2963 4666 3353 4366 
Q 3744 4066 3744 3513 
Q 3744 3084 3544 2831 
Q 3344 2578 2956 2516 
Q 3422 2416 3680 2098 
Q 3938 1781 3938 1306 
Q 3938 681 3513 340 
Q 3088 0 2303 0 
L 628 0 
L 628 4666 
z
" transform="scale(0.015625)"/>
       <path id="DejaVuSans-2f" d="M 1625 4666 
L 2156 4666 
L 531 -594 
L 0 -594 
L 1625 4666 
z
" transform="scale(0.015625)"/>
      </defs>
      <use xlink:href="#DejaVuSans-54"/>
      <use xlink:href="#DejaVuSans-68" transform="translate(61.083984 0)"/>
      <use xlink:href="#DejaVuSans-72" transform="translate(124.462891 0)"/>
      <use xlink:href="#DejaVuSans-6f" transform="translate(163.326172 0)"/>
      <use xlink:href="#DejaVuSans-75" transform="translate(224.507812 0)"/>
      <use xlink:href="#DejaVuSans-67" transform="translate(287.886719 0)"/>
      <use xlink:href="#DejaVuSans-68" transform="translate(351.363281 0)"/>
      <use xlink:href="#DejaVuSans-70" transform="translate(414.742188 0)"/>
      <use xlink:href="#DejaVuSans-75" transform="translate(478.21875 0)"/>
      <use xlink:href="#DejaVuSans-74" transform="translate(541.597656 0)"/>
      <use xlink:href="#DejaVuSans-20" transform="translate(580.806641 0)"/>
      <use xlink:href="#DejaVuSans-28" transform="translate(612.59375 0)"/>
      <use xlink:href="#DejaVuSans-4d" transform="translate(651.607422 0)"/>
      <use xlink:href="#DejaVuSans-42" transform="translate(737.886719 0)"/>
      <use xlink:href="#DejaVuSans-2f" transform="translate(806.490234 0)"/>
      <use xlink:href="#DejaVuSans-73" transform="translate(840.181641 0)"/>
      <use xlink:href="#DejaVuSans-29" transform="translate(892.28125 0)"/>
     </g>
    </g>
   </g>
   <g id="line2d_12">
    <path d="M 634.087495 1357.569266 
L 647.16991 924.086328 
L 686.062714 924.086328 
L 702.226281 1249.198531 
L 715.205554 924.086328 
L 741.132092 924.086328 
L 767.643867 1249.198531 
L 780.628282 924.086328 
L 806.561134 924.086328 
L 832.056697 1249.198531 
L 845.023947 924.086328 
L 870.946198 924.086328 
L 896.607948 1249.198531 
L 909.604126 924.086328 
L 935.509769 924.086328 
L 961.41441 1249.198531 
L 974.365744 924.086328 
L 1000.286816 924.086328 
L 1026.298808 1249.198531 
L 1039.262007 924.086328 
L 1065.205581 924.086328 
L 1091.029496 1249.198531 
L 1103.981946 924.086328 
L 1129.916346 924.086328 
L 1155.309465 1249.198531 
L 1168.266845 924.086328 
L 1194.197042 924.086328 
L 1220.423725 1249.198531 
L 1233.37796 924.086328 
L 1259.310258 924.086328 
L 1284.452054 1249.198531 
L 1297.417204 924.086328 
L 1323.337521 924.086328 
L 1349.757108 1249.198531 
L 1362.715404 924.086328 
L 1388.669262 924.086328 
L 1414.377171 1249.198531 
L 1427.332939 924.086328 
L 1453.255318 924.086328 
L 1478.607475 1249.198531 
L 1491.597009 924.086328 
L 1517.518985 924.086328 
L 1543.757822 1249.198531 
L 1556.715186 924.086328 
L 1582.651123 924.086328 
L 1608.002319 1249.198531 
L 1620.971143 924.086328 
L 1646.880659 924.086328 
L 1672.588942 1249.198531 
L 1685.563224 924.086328 
L 1711.48876 924.086328 
L 1738.199737 1249.198531 
L 1751.183912 924.086328 
L 1777.148485 924.086328 
L 1803.024078 1249.198531 
L 1815.997135 924.086328 
L 1841.951799 924.086328 
L 1867.006745 1357.569266 
L 1879.987004 924.086328 
L 1918.887786 924.086328 
L 1933.57325 1249.198531 
L 1946.539986 924.086328 
L 1972.478839 924.086328 
L 1998.199373 1249.198531 
L 2011.172262 924.086328 
L 2037.128763 924.086328 
L 2062.212062 1249.198531 
L 2075.17866 924.086328 
L 2101.09819 924.086328 
L 2126.913044 1249.198531 
L 2139.86499 924.086328 
L 2165.818945 924.086328 
L 2192.398827 1249.198531 
L 2205.354933 924.086328 
L 2231.290841 924.086328 
L 2257.387403 1249.198531 
L 2270.347088 924.086328 
L 2296.287617 924.086328 
L 2321.675999 1249.198531 
L 2334.642099 924.086328 
L 2360.576911 924.086328 
L 2385.59702 1249.198531 
L 2398.560846 924.086328 
L 2424.502433 924.086328 
L 2449.938302 1249.198531 
L 2462.896161 924.086328 
L 2488.80842 924.086328 
L 2513.785124 1249.198531 
L 2526.765565 924.086328 
L 2552.691921 924.086328 
L 2578.694736 1249.198531 
L 2591.648995 924.086328 
L 2617.552982 924.086328 
L 2642.422555 1249.198531 
L 2655.417214 924.086328 
L 2681.328851 924.086328 
L 2707.495746 1249.198531 
L 2720.451955 924.086328 
L 2746.398915 924.086328 
L 2771.983799 1249.198531 
L 2784.946444 924.086328 
L 2810.864469 924.086328 
L 2836.684588 1249.198531 
L 2849.651081 924.086328 
L 2862.606818 924.086328 
L 2862.606818 924.086328 
" clip-path="url(#pb4f7356c7a)" style="fill: none; stroke: #1f77b4; stroke-width: 12; stroke-linecap: square"/>
    <defs>
     <path id="me37ee1eb84" d="M 0 10 
C 2.652031 10 5.195799 8.946337 7.071068 7.071068 
C 8.946337 5.195799 10 2.652031 10 0 
C 10 -2.652031 8.946337 -5.195799 7.071068 -7.071068 
C 5.195799 -8.946337 2.652031 -10 0 -10 
C -2.652031 -10 -5.195799 -8.946337 -7.071068 -7.071068 
C -8.946337 -5.195799 -10 -2.652031 -10 0 
C -10 2.652031 -8.946337 5.195799 -7.071068 7.071068 
C -5.195799 8.946337 -2.652031 10 0 10 
z
" style="stroke: #1f77b4"/>
    </defs>
    <g clip-path="url(#pb4f7356c7a)">
     <use xlink:href="#me37ee1eb84" x="634.087495" y="1357.569266" style="fill: #1f77b4; stroke: #1f77b4"/>
     <use xlink:href="#me37ee1eb84" x="647.16991" y="924.086328" style="fill: #1f77b4; stroke: #1f77b4"/>
     <use xlink:href="#me37ee1eb84" x="660.133948" y="924.086328" style="fill: #1f77b4; stroke: #1f77b4"/>
     <use xlink:href="#me37ee1eb84" x="673.099036" y="924.086328" style="fill: #1f77b4; stroke: #1f77b4"/>
     <use xlink:href="#me37ee1eb84" x="686.062714" y="924.086328" style="fill: #1f77b4; stroke: #1f77b4"/>
     <use xlink:href="#me37ee1eb84" x="702.226281" y="1249.198531" style="fill: #1f77b4; stroke: #1f77b4"/>
     <use xlink:href="#me37ee1eb84" x="715.205554" y="924.086328" style="fill: #1f77b4; stroke: #1f77b4"/>
     <use xlink:href="#me37ee1eb84" x="728.157894" y="924.086328" style="fill: #1f77b4; stroke: #1f77b4"/>
     <use xlink:href="#me37ee1eb84" x="741.132092" y="924.086328" style="fill: #1f77b4; stroke: #1f77b4"/>
     <use xlink:href="#me37ee1eb84" x="767.643867" y="1249.198531" style="fill: #1f77b4; stroke: #1f77b4"/>
     <use xlink:href="#me37ee1eb84" x="780.628282" y="924.086328" style="fill: #1f77b4; stroke: #1f77b4"/>
     <use xlink:href="#me37ee1eb84" x="793.603727" y="924.086328" style="fill: #1f77b4; stroke: #1f77b4"/>
     <use xlink:href="#me37ee1eb84" x="806.561134" y="924.086328" style="fill: #1f77b4; stroke: #1f77b4"/>
     <use xlink:href="#me37ee1eb84" x="832.056697" y="1249.198531" style="fill: #1f77b4; stroke: #1f77b4"/>
     <use xlink:href="#me37ee1eb84" x="845.023947" y="924.086328" style="fill: #1f77b4; stroke: #1f77b4"/>
     <use xlink:href="#me37ee1eb84" x="857.992071" y="924.086328" style="fill: #1f77b4; stroke: #1f77b4"/>
     <use xlink:href="#me37ee1eb84" x="870.946198" y="924.086328" style="fill: #1f77b4; stroke: #1f77b4"/>
     <use xlink:href="#me37ee1eb84" x="896.607948" y="1249.198531" style="fill: #1f77b4; stroke: #1f77b4"/>
     <use xlink:href="#me37ee1eb84" x="909.604126" y="924.086328" style="fill: #1f77b4; stroke: #1f77b4"/>
     <use xlink:href="#me37ee1eb84" x="922.556775" y="924.086328" style="fill: #1f77b4; stroke: #1f77b4"/>
     <use xlink:href="#me37ee1eb84" x="935.509769" y="924.086328" style="fill: #1f77b4; stroke: #1f77b4"/>
     <use xlink:href="#me37ee1eb84" x="961.41441" y="1249.198531" style="fill: #1f77b4; stroke: #1f77b4"/>
     <use xlink:href="#me37ee1eb84" x="974.365744" y="924.086328" style="fill: #1f77b4; stroke: #1f77b4"/>
     <use xlink:href="#me37ee1eb84" x="987.314649" y="924.086328" style="fill: #1f77b4; stroke: #1f77b4"/>
     <use xlink:href="#me37ee1eb84" x="1000.286816" y="924.086328" style="fill: #1f77b4; stroke: #1f77b4"/>
     <use xlink:href="#me37ee1eb84" x="1026.298808" y="1249.198531" style="fill: #1f77b4; stroke: #1f77b4"/>
     <use xlink:href="#me37ee1eb84" x="1039.262007" y="924.086328" style="fill: #1f77b4; stroke: #1f77b4"/>
     <use xlink:href="#me37ee1eb84" x="1052.218559" y="924.086328" style="fill: #1f77b4; stroke: #1f77b4"/>
     <use xlink:href="#me37ee1eb84" x="1065.205581" y="924.086328" style="fill: #1f77b4; stroke: #1f77b4"/>
     <use xlink:href="#me37ee1eb84" x="1091.029496" y="1249.198531" style="fill: #1f77b4; stroke: #1f77b4"/>
     <use xlink:href="#me37ee1eb84" x="1103.981946" y="924.086328" style="fill: #1f77b4; stroke: #1f77b4"/>
     <use xlink:href="#me37ee1eb84" x="1116.931353" y="924.086328" style="fill: #1f77b4; stroke: #1f77b4"/>
     <use xlink:href="#me37ee1eb84" x="1129.916346" y="924.086328" style="fill: #1f77b4; stroke: #1f77b4"/>
     <use xlink:href="#me37ee1eb84" x="1155.309465" y="1249.198531" style="fill: #1f77b4; stroke: #1f77b4"/>
     <use xlink:href="#me37ee1eb84" x="1168.266845" y="924.086328" style="fill: #1f77b4; stroke: #1f77b4"/>
     <use xlink:href="#me37ee1eb84" x="1181.219898" y="924.086328" style="fill: #1f77b4; stroke: #1f77b4"/>
     <use xlink:href="#me37ee1eb84" x="1194.197042" y="924.086328" style="fill: #1f77b4; stroke: #1f77b4"/>
     <use xlink:href="#me37ee1eb84" x="1220.423725" y="1249.198531" style="fill: #1f77b4; stroke: #1f77b4"/>
     <use xlink:href="#me37ee1eb84" x="1233.37796" y="924.086328" style="fill: #1f77b4; stroke: #1f77b4"/>
     <use xlink:href="#me37ee1eb84" x="1246.355849" y="924.086328" style="fill: #1f77b4; stroke: #1f77b4"/>
     <use xlink:href="#me37ee1eb84" x="1259.310258" y="924.086328" style="fill: #1f77b4; stroke: #1f77b4"/>
     <use xlink:href="#me37ee1eb84" x="1284.452054" y="1249.198531" style="fill: #1f77b4; stroke: #1f77b4"/>
     <use xlink:href="#me37ee1eb84" x="1297.417204" y="924.086328" style="fill: #1f77b4; stroke: #1f77b4"/>
     <use xlink:href="#me37ee1eb84" x="1310.389945" y="924.086328" style="fill: #1f77b4; stroke: #1f77b4"/>
     <use xlink:href="#me37ee1eb84" x="1323.337521" y="924.086328" style="fill: #1f77b4; stroke: #1f77b4"/>
     <use xlink:href="#me37ee1eb84" x="1349.757108" y="1249.198531" style="fill: #1f77b4; stroke: #1f77b4"/>
     <use xlink:href="#me37ee1eb84" x="1362.715404" y="924.086328" style="fill: #1f77b4; stroke: #1f77b4"/>
     <use xlink:href="#me37ee1eb84" x="1375.693465" y="924.086328" style="fill: #1f77b4; stroke: #1f77b4"/>
     <use xlink:href="#me37ee1eb84" x="1388.669262" y="924.086328" style="fill: #1f77b4; stroke: #1f77b4"/>
     <use xlink:href="#me37ee1eb84" x="1414.377171" y="1249.198531" style="fill: #1f77b4; stroke: #1f77b4"/>
     <use xlink:href="#me37ee1eb84" x="1427.332939" y="924.086328" style="fill: #1f77b4; stroke: #1f77b4"/>
     <use xlink:href="#me37ee1eb84" x="1440.300891" y="924.086328" style="fill: #1f77b4; stroke: #1f77b4"/>
     <use xlink:href="#me37ee1eb84" x="1453.255318" y="924.086328" style="fill: #1f77b4; stroke: #1f77b4"/>
     <use xlink:href="#me37ee1eb84" x="1478.607475" y="1249.198531" style="fill: #1f77b4; stroke: #1f77b4"/>
     <use xlink:href="#me37ee1eb84" x="1491.597009" y="924.086328" style="fill: #1f77b4; stroke: #1f77b4"/>
     <use xlink:href="#me37ee1eb84" x="1504.567623" y="924.086328" style="fill: #1f77b4; stroke: #1f77b4"/>
     <use xlink:href="#me37ee1eb84" x="1517.518985" y="924.086328" style="fill: #1f77b4; stroke: #1f77b4"/>
     <use xlink:href="#me37ee1eb84" x="1543.757822" y="1249.198531" style="fill: #1f77b4; stroke: #1f77b4"/>
     <use xlink:href="#me37ee1eb84" x="1556.715186" y="924.086328" style="fill: #1f77b4; stroke: #1f77b4"/>
     <use xlink:href="#me37ee1eb84" x="1569.671056" y="924.086328" style="fill: #1f77b4; stroke: #1f77b4"/>
     <use xlink:href="#me37ee1eb84" x="1582.651123" y="924.086328" style="fill: #1f77b4; stroke: #1f77b4"/>
     <use xlink:href="#me37ee1eb84" x="1608.002319" y="1249.198531" style="fill: #1f77b4; stroke: #1f77b4"/>
     <use xlink:href="#me37ee1eb84" x="1620.971143" y="924.086328" style="fill: #1f77b4; stroke: #1f77b4"/>
     <use xlink:href="#me37ee1eb84" x="1633.925923" y="924.086328" style="fill: #1f77b4; stroke: #1f77b4"/>
     <use xlink:href="#me37ee1eb84" x="1646.880659" y="924.086328" style="fill: #1f77b4; stroke: #1f77b4"/>
     <use xlink:href="#me37ee1eb84" x="1672.588942" y="1249.198531" style="fill: #1f77b4; stroke: #1f77b4"/>
     <use xlink:href="#me37ee1eb84" x="1685.563224" y="924.086328" style="fill: #1f77b4; stroke: #1f77b4"/>
     <use xlink:href="#me37ee1eb84" x="1698.533541" y="924.086328" style="fill: #1f77b4; stroke: #1f77b4"/>
     <use xlink:href="#me37ee1eb84" x="1711.48876" y="924.086328" style="fill: #1f77b4; stroke: #1f77b4"/>
     <use xlink:href="#me37ee1eb84" x="1738.199737" y="1249.198531" style="fill: #1f77b4; stroke: #1f77b4"/>
     <use xlink:href="#me37ee1eb84" x="1751.183912" y="924.086328" style="fill: #1f77b4; stroke: #1f77b4"/>
     <use xlink:href="#me37ee1eb84" x="1764.150725" y="924.086328" style="fill: #1f77b4; stroke: #1f77b4"/>
     <use xlink:href="#me37ee1eb84" x="1777.148485" y="924.086328" style="fill: #1f77b4; stroke: #1f77b4"/>
     <use xlink:href="#me37ee1eb84" x="1803.024078" y="1249.198531" style="fill: #1f77b4; stroke: #1f77b4"/>
     <use xlink:href="#me37ee1eb84" x="1815.997135" y="924.086328" style="fill: #1f77b4; stroke: #1f77b4"/>
     <use xlink:href="#me37ee1eb84" x="1828.976548" y="924.086328" style="fill: #1f77b4; stroke: #1f77b4"/>
     <use xlink:href="#me37ee1eb84" x="1841.951799" y="924.086328" style="fill: #1f77b4; stroke: #1f77b4"/>
     <use xlink:href="#me37ee1eb84" x="1867.006745" y="1357.569266" style="fill: #1f77b4; stroke: #1f77b4"/>
     <use xlink:href="#me37ee1eb84" x="1879.987004" y="924.086328" style="fill: #1f77b4; stroke: #1f77b4"/>
     <use xlink:href="#me37ee1eb84" x="1892.952891" y="924.086328" style="fill: #1f77b4; stroke: #1f77b4"/>
     <use xlink:href="#me37ee1eb84" x="1905.911178" y="924.086328" style="fill: #1f77b4; stroke: #1f77b4"/>
     <use xlink:href="#me37ee1eb84" x="1918.887786" y="924.086328" style="fill: #1f77b4; stroke: #1f77b4"/>
     <use xlink:href="#me37ee1eb84" x="1933.57325" y="1249.198531" style="fill: #1f77b4; stroke: #1f77b4"/>
     <use xlink:href="#me37ee1eb84" x="1946.539986" y="924.086328" style="fill: #1f77b4; stroke: #1f77b4"/>
     <use xlink:href="#me37ee1eb84" x="1959.514763" y="924.086328" style="fill: #1f77b4; stroke: #1f77b4"/>
     <use xlink:href="#me37ee1eb84" x="1972.478839" y="924.086328" style="fill: #1f77b4; stroke: #1f77b4"/>
     <use xlink:href="#me37ee1eb84" x="1998.199373" y="1249.198531" style="fill: #1f77b4; stroke: #1f77b4"/>
     <use xlink:href="#me37ee1eb84" x="2011.172262" y="924.086328" style="fill: #1f77b4; stroke: #1f77b4"/>
     <use xlink:href="#me37ee1eb84" x="2024.150924" y="924.086328" style="fill: #1f77b4; stroke: #1f77b4"/>
     <use xlink:href="#me37ee1eb84" x="2037.128763" y="924.086328" style="fill: #1f77b4; stroke: #1f77b4"/>
     <use xlink:href="#me37ee1eb84" x="2062.212062" y="1249.198531" style="fill: #1f77b4; stroke: #1f77b4"/>
     <use xlink:href="#me37ee1eb84" x="2075.17866" y="924.086328" style="fill: #1f77b4; stroke: #1f77b4"/>
     <use xlink:href="#me37ee1eb84" x="2088.133429" y="924.086328" style="fill: #1f77b4; stroke: #1f77b4"/>
     <use xlink:href="#me37ee1eb84" x="2101.09819" y="924.086328" style="fill: #1f77b4; stroke: #1f77b4"/>
     <use xlink:href="#me37ee1eb84" x="2126.913044" y="1249.198531" style="fill: #1f77b4; stroke: #1f77b4"/>
     <use xlink:href="#me37ee1eb84" x="2139.86499" y="924.086328" style="fill: #1f77b4; stroke: #1f77b4"/>
     <use xlink:href="#me37ee1eb84" x="2152.864468" y="924.086328" style="fill: #1f77b4; stroke: #1f77b4"/>
     <use xlink:href="#me37ee1eb84" x="2165.818945" y="924.086328" style="fill: #1f77b4; stroke: #1f77b4"/>
     <use xlink:href="#me37ee1eb84" x="2192.398827" y="1249.198531" style="fill: #1f77b4; stroke: #1f77b4"/>
     <use xlink:href="#me37ee1eb84" x="2205.354933" y="924.086328" style="fill: #1f77b4; stroke: #1f77b4"/>
     <use xlink:href="#me37ee1eb84" x="2218.308723" y="924.086328" style="fill: #1f77b4; stroke: #1f77b4"/>
     <use xlink:href="#me37ee1eb84" x="2231.290841" y="924.086328" style="fill: #1f77b4; stroke: #1f77b4"/>
     <use xlink:href="#me37ee1eb84" x="2257.387403" y="1249.198531" style="fill: #1f77b4; stroke: #1f77b4"/>
     <use xlink:href="#me37ee1eb84" x="2270.347088" y="924.086328" style="fill: #1f77b4; stroke: #1f77b4"/>
     <use xlink:href="#me37ee1eb84" x="2283.305317" y="924.086328" style="fill: #1f77b4; stroke: #1f77b4"/>
     <use xlink:href="#me37ee1eb84" x="2296.287617" y="924.086328" style="fill: #1f77b4; stroke: #1f77b4"/>
     <use xlink:href="#me37ee1eb84" x="2321.675999" y="1249.198531" style="fill: #1f77b4; stroke: #1f77b4"/>
     <use xlink:href="#me37ee1eb84" x="2334.642099" y="924.086328" style="fill: #1f77b4; stroke: #1f77b4"/>
     <use xlink:href="#me37ee1eb84" x="2347.619863" y="924.086328" style="fill: #1f77b4; stroke: #1f77b4"/>
     <use xlink:href="#me37ee1eb84" x="2360.576911" y="924.086328" style="fill: #1f77b4; stroke: #1f77b4"/>
     <use xlink:href="#me37ee1eb84" x="2385.59702" y="1249.198531" style="fill: #1f77b4; stroke: #1f77b4"/>
     <use xlink:href="#me37ee1eb84" x="2398.560846" y="924.086328" style="fill: #1f77b4; stroke: #1f77b4"/>
     <use xlink:href="#me37ee1eb84" x="2411.530596" y="924.086328" style="fill: #1f77b4; stroke: #1f77b4"/>
     <use xlink:href="#me37ee1eb84" x="2424.502433" y="924.086328" style="fill: #1f77b4; stroke: #1f77b4"/>
     <use xlink:href="#me37ee1eb84" x="2449.938302" y="1249.198531" style="fill: #1f77b4; stroke: #1f77b4"/>
     <use xlink:href="#me37ee1eb84" x="2462.896161" y="924.086328" style="fill: #1f77b4; stroke: #1f77b4"/>
     <use xlink:href="#me37ee1eb84" x="2475.857008" y="924.086328" style="fill: #1f77b4; stroke: #1f77b4"/>
     <use xlink:href="#me37ee1eb84" x="2488.80842" y="924.086328" style="fill: #1f77b4; stroke: #1f77b4"/>
     <use xlink:href="#me37ee1eb84" x="2513.785124" y="1249.198531" style="fill: #1f77b4; stroke: #1f77b4"/>
     <use xlink:href="#me37ee1eb84" x="2526.765565" y="924.086328" style="fill: #1f77b4; stroke: #1f77b4"/>
     <use xlink:href="#me37ee1eb84" x="2539.733925" y="924.086328" style="fill: #1f77b4; stroke: #1f77b4"/>
     <use xlink:href="#me37ee1eb84" x="2552.691921" y="924.086328" style="fill: #1f77b4; stroke: #1f77b4"/>
     <use xlink:href="#me37ee1eb84" x="2578.694736" y="1249.198531" style="fill: #1f77b4; stroke: #1f77b4"/>
     <use xlink:href="#me37ee1eb84" x="2591.648995" y="924.086328" style="fill: #1f77b4; stroke: #1f77b4"/>
     <use xlink:href="#me37ee1eb84" x="2604.600282" y="924.086328" style="fill: #1f77b4; stroke: #1f77b4"/>
     <use xlink:href="#me37ee1eb84" x="2617.552982" y="924.086328" style="fill: #1f77b4; stroke: #1f77b4"/>
     <use xlink:href="#me37ee1eb84" x="2642.422555" y="1249.198531" style="fill: #1f77b4; stroke: #1f77b4"/>
     <use xlink:href="#me37ee1eb84" x="2655.417214" y="924.086328" style="fill: #1f77b4; stroke: #1f77b4"/>
     <use xlink:href="#me37ee1eb84" x="2668.37254" y="924.086328" style="fill: #1f77b4; stroke: #1f77b4"/>
     <use xlink:href="#me37ee1eb84" x="2681.328851" y="924.086328" style="fill: #1f77b4; stroke: #1f77b4"/>
     <use xlink:href="#me37ee1eb84" x="2707.495746" y="1249.198531" style="fill: #1f77b4; stroke: #1f77b4"/>
     <use xlink:href="#me37ee1eb84" x="2720.451955" y="924.086328" style="fill: #1f77b4; stroke: #1f77b4"/>
     <use xlink:href="#me37ee1eb84" x="2733.415395" y="924.086328" style="fill: #1f77b4; stroke: #1f77b4"/>
     <use xlink:href="#me37ee1eb84" x="2746.398915" y="924.086328" style="fill: #1f77b4; stroke: #1f77b4"/>
     <use xlink:href="#me37ee1eb84" x="2771.983799" y="1249.198531" style="fill: #1f77b4; stroke: #1f77b4"/>
     <use xlink:href="#me37ee1eb84" x="2784.946444" y="924.086328" style="fill: #1f77b4; stroke: #1f77b4"/>
     <use xlink:href="#me37ee1eb84" x="2797.90419" y="924.086328" style="fill: #1f77b4; stroke: #1f77b4"/>
     <use xlink:href="#me37ee1eb84" x="2810.864469" y="924.086328" style="fill: #1f77b4; stroke: #1f77b4"/>
     <use xlink:href="#me37ee1eb84" x="2836.684588" y="1249.198531" style="fill: #1f77b4; stroke: #1f77b4"/>
     <use xlink:href="#me37ee1eb84" x="2849.651081" y="924.086328" style="fill: #1f77b4; stroke: #1f77b4"/>
     <use xlink:href="#me37ee1eb84" x="2862.606818" y="924.086328" style="fill: #1f77b4; stroke: #1f77b4"/>
    </g>
   </g>
   <g id="line2d_13">
    <path d="M 642.404281 715.488497 
L 653.809709 754.024541 
L 696.330979 1275.040535 
L 704.2062 435.31296 
L 720.15353 957.042931 
L 756.693221 1243.872129 
L 777.122683 1067.770907 
L 792.970785 953.91445 
L 815.455967 1104.793903 
L 828.494335 843.465808 
L 866.502665 1252.375374 
L 881.67413 931.007912 
L 898.008792 967.50072 
L 908.281626 741.880188 
L 914.436215 854.698032 
L 919.962744 425.597487 
L 926.144781 415.812091 
L 931.624996 411.599769 
L 940.907196 417.135801 
L 946.418912 405.667301 
L 955.533048 406.81109 
L 961.04685 414.236863 
L 970.479998 420.945456 
L 975.941279 417.859629 
L 985.261691 411.196198 
L 990.851503 410.194275 
L 1000.000372 401.699318 
L 1005.508051 427.484192 
L 1014.719166 422.366158 
L 1020.241896 402.086166 
L 1029.409938 417.172202 
L 1034.954949 422.281459 
L 1044.116095 404.337023 
L 1049.732691 410.877936 
L 1059.023696 425.71441 
L 1064.42127 397.447635 
L 1073.687224 420.751148 
L 1079.35055 421.853752 
L 1088.508263 411.400027 
L 1094.062799 427.160777 
L 1103.41249 426.307266 
L 1108.810617 396.264556 
L 1117.981022 418.42387 
L 1123.519233 413.384041 
L 1132.745965 410.178674 
L 1138.281573 409.488333 
L 1147.543519 415.39896 
L 1152.964132 402.647062 
L 1162.376651 427.261834 
L 1167.943755 413.637794 
L 1176.979829 418.413847 
L 1182.610782 425.854187 
L 1191.871495 423.633478 
L 1197.40848 407.229124 
L 1206.605748 408.188493 
L 1212.219062 430.485523 
L 1221.458745 408.067239 
L 1226.930917 423.048782 
L 1236.249322 427.749855 
L 1241.637677 404.527522 
L 1250.889827 411.540685 
L 1256.42202 413.311598 
L 1265.574733 426.696476 
L 1271.278443 423.727001 
L 1280.425542 423.223284 
L 1286.088258 413.226393 
L 1295.380879 425.319951 
L 1300.870649 406.886271 
L 1310.068493 438.503559 
L 1315.627912 414.731549 
L 1324.826693 419.730748 
L 1330.332801 402.538109 
L 1339.730707 440.091854 
L 1345.277391 416.607705 
L 1354.602874 431.455 
L 1360.155842 420.539997 
L 1369.244726 410.901194 
L 1374.912117 420.474759 
L 1384.054894 423.343991 
L 1389.541717 396.728831 
L 1398.763827 422.120172 
L 1404.310794 412.989925 
L 1413.629768 412.398304 
L 1419.13082 413.457442 
L 1428.400114 435.407962 
L 1433.934749 396.306159 
L 1443.060754 431.173684 
L 1448.551677 399.692296 
L 1457.790068 419.747175 
L 1463.42898 420.467198 
L 1472.783969 423.972486 
L 1478.088491 386.086157 
L 1487.324015 408.200822 
L 1492.711062 401.241915 
L 1502.136469 426.49421 
L 1507.625582 400.758089 
L 1516.90701 443.349096 
L 1522.376221 391.112503 
L 1531.575677 421.424273 
L 1537.104077 398.862714 
L 1546.300265 422.330167 
L 1551.880146 423.321363 
L 1561.221386 427.539931 
L 1566.571348 391.52709 
L 1575.921567 436.44598 
L 1581.537318 409.521985 
L 1590.71527 408.263035 
L 1596.109196 403.724126 
L 1605.387476 408.490808 
L 1610.762252 395.449186 
L 1620.115953 420.427513 
L 1625.644576 408.527052 
" clip-path="url(#pb4f7356c7a)" style="fill: none; stroke: #ff7f0e; stroke-width: 12; stroke-linecap: square"/>
    <defs>
     <path id="m0d95fe0679" d="M 0 10 
C 2.652031 10 5.195799 8.946337 7.071068 7.071068 
C 8.946337 5.195799 10 2.652031 10 0 
C 10 -2.652031 8.946337 -5.195799 7.071068 -7.071068 
C 5.195799 -8.946337 2.652031 -10 0 -10 
C -2.652031 -10 -5.195799 -8.946337 -7.071068 -7.071068 
C -8.946337 -5.195799 -10 -2.652031 -10 0 
C -10 2.652031 -8.946337 5.195799 -7.071068 7.071068 
C -5.195799 8.946337 -2.652031 10 0 10 
z
" style="stroke: #ff7f0e"/>
    </defs>
    <g clip-path="url(#pb4f7356c7a)">
     <use xlink:href="#m0d95fe0679" x="642.404281" y="715.488497" style="fill: #ff7f0e; stroke: #ff7f0e"/>
     <use xlink:href="#m0d95fe0679" x="653.809709" y="754.024541" style="fill: #ff7f0e; stroke: #ff7f0e"/>
     <use xlink:href="#m0d95fe0679" x="696.330979" y="1275.040535" style="fill: #ff7f0e; stroke: #ff7f0e"/>
     <use xlink:href="#m0d95fe0679" x="704.2062" y="435.31296" style="fill: #ff7f0e; stroke: #ff7f0e"/>
     <use xlink:href="#m0d95fe0679" x="720.15353" y="957.042931" style="fill: #ff7f0e; stroke: #ff7f0e"/>
     <use xlink:href="#m0d95fe0679" x="756.693221" y="1243.872129" style="fill: #ff7f0e; stroke: #ff7f0e"/>
     <use xlink:href="#m0d95fe0679" x="777.122683" y="1067.770907" style="fill: #ff7f0e; stroke: #ff7f0e"/>
     <use xlink:href="#m0d95fe0679" x="792.970785" y="953.91445" style="fill: #ff7f0e; stroke: #ff7f0e"/>
     <use xlink:href="#m0d95fe0679" x="815.455967" y="1104.793903" style="fill: #ff7f0e; stroke: #ff7f0e"/>
     <use xlink:href="#m0d95fe0679" x="828.494335" y="843.465808" style="fill: #ff7f0e; stroke: #ff7f0e"/>
     <use xlink:href="#m0d95fe0679" x="866.502665" y="1252.375374" style="fill: #ff7f0e; stroke: #ff7f0e"/>
     <use xlink:href="#m0d95fe0679" x="881.67413" y="931.007912" style="fill: #ff7f0e; stroke: #ff7f0e"/>
     <use xlink:href="#m0d95fe0679" x="898.008792" y="967.50072" style="fill: #ff7f0e; stroke: #ff7f0e"/>
     <use xlink:href="#m0d95fe0679" x="908.281626" y="741.880188" style="fill: #ff7f0e; stroke: #ff7f0e"/>
     <use xlink:href="#m0d95fe0679" x="914.436215" y="854.698032" style="fill: #ff7f0e; stroke: #ff7f0e"/>
     <use xlink:href="#m0d95fe0679" x="919.962744" y="425.597487" style="fill: #ff7f0e; stroke: #ff7f0e"/>
     <use xlink:href="#m0d95fe0679" x="926.144781" y="415.812091" style="fill: #ff7f0e; stroke: #ff7f0e"/>
     <use xlink:href="#m0d95fe0679" x="931.624996" y="411.599769" style="fill: #ff7f0e; stroke: #ff7f0e"/>
     <use xlink:href="#m0d95fe0679" x="940.907196" y="417.135801" style="fill: #ff7f0e; stroke: #ff7f0e"/>
     <use xlink:href="#m0d95fe0679" x="946.418912" y="405.667301" style="fill: #ff7f0e; stroke: #ff7f0e"/>
     <use xlink:href="#m0d95fe0679" x="955.533048" y="406.81109" style="fill: #ff7f0e; stroke: #ff7f0e"/>
     <use xlink:href="#m0d95fe0679" x="961.04685" y="414.236863" style="fill: #ff7f0e; stroke: #ff7f0e"/>
     <use xlink:href="#m0d95fe0679" x="970.479998" y="420.945456" style="fill: #ff7f0e; stroke: #ff7f0e"/>
     <use xlink:href="#m0d95fe0679" x="975.941279" y="417.859629" style="fill: #ff7f0e; stroke: #ff7f0e"/>
     <use xlink:href="#m0d95fe0679" x="985.261691" y="411.196198" style="fill: #ff7f0e; stroke: #ff7f0e"/>
     <use xlink:href="#m0d95fe0679" x="990.851503" y="410.194275" style="fill: #ff7f0e; stroke: #ff7f0e"/>
     <use xlink:href="#m0d95fe0679" x="1000.000372" y="401.699318" style="fill: #ff7f0e; stroke: #ff7f0e"/>
     <use xlink:href="#m0d95fe0679" x="1005.508051" y="427.484192" style="fill: #ff7f0e; stroke: #ff7f0e"/>
     <use xlink:href="#m0d95fe0679" x="1014.719166" y="422.366158" style="fill: #ff7f0e; stroke: #ff7f0e"/>
     <use xlink:href="#m0d95fe0679" x="1020.241896" y="402.086166" style="fill: #ff7f0e; stroke: #ff7f0e"/>
     <use xlink:href="#m0d95fe0679" x="1029.409938" y="417.172202" style="fill: #ff7f0e; stroke: #ff7f0e"/>
     <use xlink:href="#m0d95fe0679" x="1034.954949" y="422.281459" style="fill: #ff7f0e; stroke: #ff7f0e"/>
     <use xlink:href="#m0d95fe0679" x="1044.116095" y="404.337023" style="fill: #ff7f0e; stroke: #ff7f0e"/>
     <use xlink:href="#m0d95fe0679" x="1049.732691" y="410.877936" style="fill: #ff7f0e; stroke: #ff7f0e"/>
     <use xlink:href="#m0d95fe0679" x="1059.023696" y="425.71441" style="fill: #ff7f0e; stroke: #ff7f0e"/>
     <use xlink:href="#m0d95fe0679" x="1064.42127" y="397.447635" style="fill: #ff7f0e; stroke: #ff7f0e"/>
     <use xlink:href="#m0d95fe0679" x="1073.687224" y="420.751148" style="fill: #ff7f0e; stroke: #ff7f0e"/>
     <use xlink:href="#m0d95fe0679" x="1079.35055" y="421.853752" style="fill: #ff7f0e; stroke: #ff7f0e"/>
     <use xlink:href="#m0d95fe0679" x="1088.508263" y="411.400027" style="fill: #ff7f0e; stroke: #ff7f0e"/>
     <use xlink:href="#m0d95fe0679" x="1094.062799" y="427.160777" style="fill: #ff7f0e; stroke: #ff7f0e"/>
     <use xlink:href="#m0d95fe0679" x="1103.41249" y="426.307266" style="fill: #ff7f0e; stroke: #ff7f0e"/>
     <use xlink:href="#m0d95fe0679" x="1108.810617" y="396.264556" style="fill: #ff7f0e; stroke: #ff7f0e"/>
     <use xlink:href="#m0d95fe0679" x="1117.981022" y="418.42387" style="fill: #ff7f0e; stroke: #ff7f0e"/>
     <use xlink:href="#m0d95fe0679" x="1123.519233" y="413.384041" style="fill: #ff7f0e; stroke: #ff7f0e"/>
     <use xlink:href="#m0d95fe0679" x="1132.745965" y="410.178674" style="fill: #ff7f0e; stroke: #ff7f0e"/>
     <use xlink:href="#m0d95fe0679" x="1138.281573" y="409.488333" style="fill: #ff7f0e; stroke: #ff7f0e"/>
     <use xlink:href="#m0d95fe0679" x="1147.543519" y="415.39896" style="fill: #ff7f0e; stroke: #ff7f0e"/>
     <use xlink:href="#m0d95fe0679" x="1152.964132" y="402.647062" style="fill: #ff7f0e; stroke: #ff7f0e"/>
     <use xlink:href="#m0d95fe0679" x="1162.376651" y="427.261834" style="fill: #ff7f0e; stroke: #ff7f0e"/>
     <use xlink:href="#m0d95fe0679" x="1167.943755" y="413.637794" style="fill: #ff7f0e; stroke: #ff7f0e"/>
     <use xlink:href="#m0d95fe0679" x="1176.979829" y="418.413847" style="fill: #ff7f0e; stroke: #ff7f0e"/>
     <use xlink:href="#m0d95fe0679" x="1182.610782" y="425.854187" style="fill: #ff7f0e; stroke: #ff7f0e"/>
     <use xlink:href="#m0d95fe0679" x="1191.871495" y="423.633478" style="fill: #ff7f0e; stroke: #ff7f0e"/>
     <use xlink:href="#m0d95fe0679" x="1197.40848" y="407.229124" style="fill: #ff7f0e; stroke: #ff7f0e"/>
     <use xlink:href="#m0d95fe0679" x="1206.605748" y="408.188493" style="fill: #ff7f0e; stroke: #ff7f0e"/>
     <use xlink:href="#m0d95fe0679" x="1212.219062" y="430.485523" style="fill: #ff7f0e; stroke: #ff7f0e"/>
     <use xlink:href="#m0d95fe0679" x="1221.458745" y="408.067239" style="fill: #ff7f0e; stroke: #ff7f0e"/>
     <use xlink:href="#m0d95fe0679" x="1226.930917" y="423.048782" style="fill: #ff7f0e; stroke: #ff7f0e"/>
     <use xlink:href="#m0d95fe0679" x="1236.249322" y="427.749855" style="fill: #ff7f0e; stroke: #ff7f0e"/>
     <use xlink:href="#m0d95fe0679" x="1241.637677" y="404.527522" style="fill: #ff7f0e; stroke: #ff7f0e"/>
     <use xlink:href="#m0d95fe0679" x="1250.889827" y="411.540685" style="fill: #ff7f0e; stroke: #ff7f0e"/>
     <use xlink:href="#m0d95fe0679" x="1256.42202" y="413.311598" style="fill: #ff7f0e; stroke: #ff7f0e"/>
     <use xlink:href="#m0d95fe0679" x="1265.574733" y="426.696476" style="fill: #ff7f0e; stroke: #ff7f0e"/>
     <use xlink:href="#m0d95fe0679" x="1271.278443" y="423.727001" style="fill: #ff7f0e; stroke: #ff7f0e"/>
     <use xlink:href="#m0d95fe0679" x="1280.425542" y="423.223284" style="fill: #ff7f0e; stroke: #ff7f0e"/>
     <use xlink:href="#m0d95fe0679" x="1286.088258" y="413.226393" style="fill: #ff7f0e; stroke: #ff7f0e"/>
     <use xlink:href="#m0d95fe0679" x="1295.380879" y="425.319951" style="fill: #ff7f0e; stroke: #ff7f0e"/>
     <use xlink:href="#m0d95fe0679" x="1300.870649" y="406.886271" style="fill: #ff7f0e; stroke: #ff7f0e"/>
     <use xlink:href="#m0d95fe0679" x="1310.068493" y="438.503559" style="fill: #ff7f0e; stroke: #ff7f0e"/>
     <use xlink:href="#m0d95fe0679" x="1315.627912" y="414.731549" style="fill: #ff7f0e; stroke: #ff7f0e"/>
     <use xlink:href="#m0d95fe0679" x="1324.826693" y="419.730748" style="fill: #ff7f0e; stroke: #ff7f0e"/>
     <use xlink:href="#m0d95fe0679" x="1330.332801" y="402.538109" style="fill: #ff7f0e; stroke: #ff7f0e"/>
     <use xlink:href="#m0d95fe0679" x="1339.730707" y="440.091854" style="fill: #ff7f0e; stroke: #ff7f0e"/>
     <use xlink:href="#m0d95fe0679" x="1345.277391" y="416.607705" style="fill: #ff7f0e; stroke: #ff7f0e"/>
     <use xlink:href="#m0d95fe0679" x="1354.602874" y="431.455" style="fill: #ff7f0e; stroke: #ff7f0e"/>
     <use xlink:href="#m0d95fe0679" x="1360.155842" y="420.539997" style="fill: #ff7f0e; stroke: #ff7f0e"/>
     <use xlink:href="#m0d95fe0679" x="1369.244726" y="410.901194" style="fill: #ff7f0e; stroke: #ff7f0e"/>
     <use xlink:href="#m0d95fe0679" x="1374.912117" y="420.474759" style="fill: #ff7f0e; stroke: #ff7f0e"/>
     <use xlink:href="#m0d95fe0679" x="1384.054894" y="423.343991" style="fill: #ff7f0e; stroke: #ff7f0e"/>
     <use xlink:href="#m0d95fe0679" x="1389.541717" y="396.728831" style="fill: #ff7f0e; stroke: #ff7f0e"/>
     <use xlink:href="#m0d95fe0679" x="1398.763827" y="422.120172" style="fill: #ff7f0e; stroke: #ff7f0e"/>
     <use xlink:href="#m0d95fe0679" x="1404.310794" y="412.989925" style="fill: #ff7f0e; stroke: #ff7f0e"/>
     <use xlink:href="#m0d95fe0679" x="1413.629768" y="412.398304" style="fill: #ff7f0e; stroke: #ff7f0e"/>
     <use xlink:href="#m0d95fe0679" x="1419.13082" y="413.457442" style="fill: #ff7f0e; stroke: #ff7f0e"/>
     <use xlink:href="#m0d95fe0679" x="1428.400114" y="435.407962" style="fill: #ff7f0e; stroke: #ff7f0e"/>
     <use xlink:href="#m0d95fe0679" x="1433.934749" y="396.306159" style="fill: #ff7f0e; stroke: #ff7f0e"/>
     <use xlink:href="#m0d95fe0679" x="1443.060754" y="431.173684" style="fill: #ff7f0e; stroke: #ff7f0e"/>
     <use xlink:href="#m0d95fe0679" x="1448.551677" y="399.692296" style="fill: #ff7f0e; stroke: #ff7f0e"/>
     <use xlink:href="#m0d95fe0679" x="1457.790068" y="419.747175" style="fill: #ff7f0e; stroke: #ff7f0e"/>
     <use xlink:href="#m0d95fe0679" x="1463.42898" y="420.467198" style="fill: #ff7f0e; stroke: #ff7f0e"/>
     <use xlink:href="#m0d95fe0679" x="1472.783969" y="423.972486" style="fill: #ff7f0e; stroke: #ff7f0e"/>
     <use xlink:href="#m0d95fe0679" x="1478.088491" y="386.086157" style="fill: #ff7f0e; stroke: #ff7f0e"/>
     <use xlink:href="#m0d95fe0679" x="1487.324015" y="408.200822" style="fill: #ff7f0e; stroke: #ff7f0e"/>
     <use xlink:href="#m0d95fe0679" x="1492.711062" y="401.241915" style="fill: #ff7f0e; stroke: #ff7f0e"/>
     <use xlink:href="#m0d95fe0679" x="1502.136469" y="426.49421" style="fill: #ff7f0e; stroke: #ff7f0e"/>
     <use xlink:href="#m0d95fe0679" x="1507.625582" y="400.758089" style="fill: #ff7f0e; stroke: #ff7f0e"/>
     <use xlink:href="#m0d95fe0679" x="1516.90701" y="443.349096" style="fill: #ff7f0e; stroke: #ff7f0e"/>
     <use xlink:href="#m0d95fe0679" x="1522.376221" y="391.112503" style="fill: #ff7f0e; stroke: #ff7f0e"/>
     <use xlink:href="#m0d95fe0679" x="1531.575677" y="421.424273" style="fill: #ff7f0e; stroke: #ff7f0e"/>
     <use xlink:href="#m0d95fe0679" x="1537.104077" y="398.862714" style="fill: #ff7f0e; stroke: #ff7f0e"/>
     <use xlink:href="#m0d95fe0679" x="1546.300265" y="422.330167" style="fill: #ff7f0e; stroke: #ff7f0e"/>
     <use xlink:href="#m0d95fe0679" x="1551.880146" y="423.321363" style="fill: #ff7f0e; stroke: #ff7f0e"/>
     <use xlink:href="#m0d95fe0679" x="1561.221386" y="427.539931" style="fill: #ff7f0e; stroke: #ff7f0e"/>
     <use xlink:href="#m0d95fe0679" x="1566.571348" y="391.52709" style="fill: #ff7f0e; stroke: #ff7f0e"/>
     <use xlink:href="#m0d95fe0679" x="1575.921567" y="436.44598" style="fill: #ff7f0e; stroke: #ff7f0e"/>
     <use xlink:href="#m0d95fe0679" x="1581.537318" y="409.521985" style="fill: #ff7f0e; stroke: #ff7f0e"/>
     <use xlink:href="#m0d95fe0679" x="1590.71527" y="408.263035" style="fill: #ff7f0e; stroke: #ff7f0e"/>
     <use xlink:href="#m0d95fe0679" x="1596.109196" y="403.724126" style="fill: #ff7f0e; stroke: #ff7f0e"/>
     <use xlink:href="#m0d95fe0679" x="1605.387476" y="408.490808" style="fill: #ff7f0e; stroke: #ff7f0e"/>
     <use xlink:href="#m0d95fe0679" x="1610.762252" y="395.449186" style="fill: #ff7f0e; stroke: #ff7f0e"/>
     <use xlink:href="#m0d95fe0679" x="1620.115953" y="420.427513" style="fill: #ff7f0e; stroke: #ff7f0e"/>
     <use xlink:href="#m0d95fe0679" x="1625.644576" y="408.527052" style="fill: #ff7f0e; stroke: #ff7f0e"/>
    </g>
   </g>
   <g id="line2d_14">
    <path d="M 626.743182 1251.731121 
L 632.384215 266.479066 
L 640.291643 300.553029 
L 649.039421 379.930801 
L 657.544432 75.32636 
L 664.925918 142.700011 
L 673.503555 394.8883 
L 681.461863 190.484706 
L 690.017229 71.503298 
L 697.259188 320.651251 
L 705.20158 156.964787 
L 713.156402 93.341063 
L 721.145736 224.912908 
L 729.653043 313.27708 
L 737.349099 293.704197 
L 746.22509 109.336434 
L 754.481539 256.098598 
L 762.435529 248.934912 
L 770.737921 159.601312 
L 778.69361 129.091042 
L 786.964099 203.998545 
L 794.937126 156.735017 
L 803.440738 181.598785 
L 811.398806 253.02388 
L 819.507424 201.456342 
L 827.489129 127.061266 
L 835.653134 266.607333 
L 843.391863 362.150019 
L 852.264874 198.054051 
L 860.620275 337.377208 
L 868.601149 226.736614 
L 876.577144 195.031827 
L 884.535405 192.294378 
L 892.5315 135.191268 
L 900.388787 114.603691 
L 908.782668 267.402733 
L 917.172381 282.814714 
L 925.124796 219.889639 
L 933.100905 129.764387 
L 941.281525 182.393476 
L 950.051073 133.370626 
L 958.246398 211.769887 
L 966.22008 193.77936 
L 974.50281 352.062271 
L 983.000044 76.212252 
L 990.459557 363.800318 
L 999.327188 195.136523 
L 1007.3053 132.796556 
L 1015.284423 194.022002 
L 1023.276045 169.479016 
L 1031.314877 200.284745 
" clip-path="url(#pb4f7356c7a)" style="fill: none; stroke: #2ca02c; stroke-width: 12; stroke-linecap: square"/>
    <defs>
     <path id="me38e59e67c" d="M 0 10 
C 2.652031 10 5.195799 8.946337 7.071068 7.071068 
C 8.946337 5.195799 10 2.652031 10 0 
C 10 -2.652031 8.946337 -5.195799 7.071068 -7.071068 
C 5.195799 -8.946337 2.652031 -10 0 -10 
C -2.652031 -10 -5.195799 -8.946337 -7.071068 -7.071068 
C -8.946337 -5.195799 -10 -2.652031 -10 0 
C -10 2.652031 -8.946337 5.195799 -7.071068 7.071068 
C -5.195799 8.946337 -2.652031 10 0 10 
z
" style="stroke: #2ca02c"/>
    </defs>
    <g clip-path="url(#pb4f7356c7a)">
     <use xlink:href="#me38e59e67c" x="626.743182" y="1251.731121" style="fill: #2ca02c; stroke: #2ca02c"/>
     <use xlink:href="#me38e59e67c" x="632.384215" y="266.479066" style="fill: #2ca02c; stroke: #2ca02c"/>
     <use xlink:href="#me38e59e67c" x="640.291643" y="300.553029" style="fill: #2ca02c; stroke: #2ca02c"/>
     <use xlink:href="#me38e59e67c" x="649.039421" y="379.930801" style="fill: #2ca02c; stroke: #2ca02c"/>
     <use xlink:href="#me38e59e67c" x="657.544432" y="75.32636" style="fill: #2ca02c; stroke: #2ca02c"/>
     <use xlink:href="#me38e59e67c" x="664.925918" y="142.700011" style="fill: #2ca02c; stroke: #2ca02c"/>
     <use xlink:href="#me38e59e67c" x="673.503555" y="394.8883" style="fill: #2ca02c; stroke: #2ca02c"/>
     <use xlink:href="#me38e59e67c" x="681.461863" y="190.484706" style="fill: #2ca02c; stroke: #2ca02c"/>
     <use xlink:href="#me38e59e67c" x="690.017229" y="71.503298" style="fill: #2ca02c; stroke: #2ca02c"/>
     <use xlink:href="#me38e59e67c" x="697.259188" y="320.651251" style="fill: #2ca02c; stroke: #2ca02c"/>
     <use xlink:href="#me38e59e67c" x="705.20158" y="156.964787" style="fill: #2ca02c; stroke: #2ca02c"/>
     <use xlink:href="#me38e59e67c" x="713.156402" y="93.341063" style="fill: #2ca02c; stroke: #2ca02c"/>
     <use xlink:href="#me38e59e67c" x="721.145736" y="224.912908" style="fill: #2ca02c; stroke: #2ca02c"/>
     <use xlink:href="#me38e59e67c" x="729.653043" y="313.27708" style="fill: #2ca02c; stroke: #2ca02c"/>
     <use xlink:href="#me38e59e67c" x="737.349099" y="293.704197" style="fill: #2ca02c; stroke: #2ca02c"/>
     <use xlink:href="#me38e59e67c" x="746.22509" y="109.336434" style="fill: #2ca02c; stroke: #2ca02c"/>
     <use xlink:href="#me38e59e67c" x="754.481539" y="256.098598" style="fill: #2ca02c; stroke: #2ca02c"/>
     <use xlink:href="#me38e59e67c" x="762.435529" y="248.934912" style="fill: #2ca02c; stroke: #2ca02c"/>
     <use xlink:href="#me38e59e67c" x="770.737921" y="159.601312" style="fill: #2ca02c; stroke: #2ca02c"/>
     <use xlink:href="#me38e59e67c" x="778.69361" y="129.091042" style="fill: #2ca02c; stroke: #2ca02c"/>
     <use xlink:href="#me38e59e67c" x="786.964099" y="203.998545" style="fill: #2ca02c; stroke: #2ca02c"/>
     <use xlink:href="#me38e59e67c" x="794.937126" y="156.735017" style="fill: #2ca02c; stroke: #2ca02c"/>
     <use xlink:href="#me38e59e67c" x="803.440738" y="181.598785" style="fill: #2ca02c; stroke: #2ca02c"/>
     <use xlink:href="#me38e59e67c" x="811.398806" y="253.02388" style="fill: #2ca02c; stroke: #2ca02c"/>
     <use xlink:href="#me38e59e67c" x="819.507424" y="201.456342" style="fill: #2ca02c; stroke: #2ca02c"/>
     <use xlink:href="#me38e59e67c" x="827.489129" y="127.061266" style="fill: #2ca02c; stroke: #2ca02c"/>
     <use xlink:href="#me38e59e67c" x="835.653134" y="266.607333" style="fill: #2ca02c; stroke: #2ca02c"/>
     <use xlink:href="#me38e59e67c" x="843.391863" y="362.150019" style="fill: #2ca02c; stroke: #2ca02c"/>
     <use xlink:href="#me38e59e67c" x="852.264874" y="198.054051" style="fill: #2ca02c; stroke: #2ca02c"/>
     <use xlink:href="#me38e59e67c" x="860.620275" y="337.377208" style="fill: #2ca02c; stroke: #2ca02c"/>
     <use xlink:href="#me38e59e67c" x="868.601149" y="226.736614" style="fill: #2ca02c; stroke: #2ca02c"/>
     <use xlink:href="#me38e59e67c" x="876.577144" y="195.031827" style="fill: #2ca02c; stroke: #2ca02c"/>
     <use xlink:href="#me38e59e67c" x="884.535405" y="192.294378" style="fill: #2ca02c; stroke: #2ca02c"/>
     <use xlink:href="#me38e59e67c" x="892.5315" y="135.191268" style="fill: #2ca02c; stroke: #2ca02c"/>
     <use xlink:href="#me38e59e67c" x="900.388787" y="114.603691" style="fill: #2ca02c; stroke: #2ca02c"/>
     <use xlink:href="#me38e59e67c" x="908.782668" y="267.402733" style="fill: #2ca02c; stroke: #2ca02c"/>
     <use xlink:href="#me38e59e67c" x="917.172381" y="282.814714" style="fill: #2ca02c; stroke: #2ca02c"/>
     <use xlink:href="#me38e59e67c" x="925.124796" y="219.889639" style="fill: #2ca02c; stroke: #2ca02c"/>
     <use xlink:href="#me38e59e67c" x="933.100905" y="129.764387" style="fill: #2ca02c; stroke: #2ca02c"/>
     <use xlink:href="#me38e59e67c" x="941.281525" y="182.393476" style="fill: #2ca02c; stroke: #2ca02c"/>
     <use xlink:href="#me38e59e67c" x="950.051073" y="133.370626" style="fill: #2ca02c; stroke: #2ca02c"/>
     <use xlink:href="#me38e59e67c" x="958.246398" y="211.769887" style="fill: #2ca02c; stroke: #2ca02c"/>
     <use xlink:href="#me38e59e67c" x="966.22008" y="193.77936" style="fill: #2ca02c; stroke: #2ca02c"/>
     <use xlink:href="#me38e59e67c" x="974.50281" y="352.062271" style="fill: #2ca02c; stroke: #2ca02c"/>
     <use xlink:href="#me38e59e67c" x="983.000044" y="76.212252" style="fill: #2ca02c; stroke: #2ca02c"/>
     <use xlink:href="#me38e59e67c" x="990.459557" y="363.800318" style="fill: #2ca02c; stroke: #2ca02c"/>
     <use xlink:href="#me38e59e67c" x="999.327188" y="195.136523" style="fill: #2ca02c; stroke: #2ca02c"/>
     <use xlink:href="#me38e59e67c" x="1007.3053" y="132.796556" style="fill: #2ca02c; stroke: #2ca02c"/>
     <use xlink:href="#me38e59e67c" x="1015.284423" y="194.022002" style="fill: #2ca02c; stroke: #2ca02c"/>
     <use xlink:href="#me38e59e67c" x="1023.276045" y="169.479016" style="fill: #2ca02c; stroke: #2ca02c"/>
     <use xlink:href="#me38e59e67c" x="1031.314877" y="200.284745" style="fill: #2ca02c; stroke: #2ca02c"/>
    </g>
   </g>
   <g id="line2d_15">
    <path d="M 1031.314877 1465.94 
L 1031.314877 7.2 
" clip-path="url(#pb4f7356c7a)" style="fill: none; stroke-dasharray: 7.4,3.2; stroke-dashoffset: 0; stroke: #000000; stroke-width: 2"/>
   </g>
   <g id="line2d_16">
    <path d="M 2862.606818 1465.94 
L 2862.606818 7.2 
" clip-path="url(#pb4f7356c7a)" style="fill: none; stroke-dasharray: 7.4,3.2; stroke-dashoffset: 0; stroke: #000000; stroke-width: 2"/>
   </g>
   <g id="line2d_17">
    <path d="M 1625.644576 1465.94 
L 1625.644576 7.2 
" clip-path="url(#pb4f7356c7a)" style="fill: none; stroke-dasharray: 7.4,3.2; stroke-dashoffset: 0; stroke: #000000; stroke-width: 2"/>
   </g>
   <g id="patch_3">
    <path d="M 514.95 1465.94 
L 514.95 7.2 
" style="fill: none; stroke: #000000; stroke-width: 0.8; stroke-linejoin: miter; stroke-linecap: square"/>
   </g>
   <g id="patch_4">
    <path d="M 2974.4 1465.94 
L 2974.4 7.2 
" style="fill: none; stroke: #000000; stroke-width: 0.8; stroke-linejoin: miter; stroke-linecap: square"/>
   </g>
   <g id="patch_5">
    <path d="M 514.95 1465.94 
L 2974.4 1465.94 
" style="fill: none; stroke: #000000; stroke-width: 0.8; stroke-linejoin: miter; stroke-linecap: square"/>
   </g>
   <g id="patch_6">
    <path d="M 514.95 7.2 
L 2974.4 7.2 
" style="fill: none; stroke: #000000; stroke-width: 0.8; stroke-linejoin: miter; stroke-linecap: square"/>
   </g>
  </g>
 </g>
 <defs>
  <clipPath id="pb4f7356c7a">
   <rect x="514.95" y="7.2" width="2459.45" height="1458.74"/>
  </clipPath>
 </defs>
</svg>
