<?xml version="1.0" encoding="utf-8" standalone="no"?>
<!DOCTYPE svg PUBLIC "-//W3C//DTD SVG 1.1//EN"
  "http://www.w3.org/Graphics/SVG/1.1/DTD/svg11.dtd">
<svg xmlns:xlink="http://www.w3.org/1999/xlink" width="2981.6pt" height="2117.57pt" viewBox="0 0 2981.6 2117.57" xmlns="http://www.w3.org/2000/svg" version="1.1">
 <metadata>
  <rdf:RDF xmlns:dc="http://purl.org/dc/elements/1.1/" xmlns:cc="http://creativecommons.org/ns#" xmlns:rdf="http://www.w3.org/1999/02/22-rdf-syntax-ns#">
   <cc:Work>
    <dc:type rdf:resource="http://purl.org/dc/dcmitype/StillImage"/>
    <dc:date>2025-05-02T02:10:46.343283</dc:date>
    <dc:format>image/svg+xml</dc:format>
    <dc:creator>
     <cc:Agent>
      <dc:title>Matplotlib v3.10.1, https://matplotlib.org/</dc:title>
     </cc:Agent>
    </dc:creator>
   </cc:Work>
  </rdf:RDF>
 </metadata>
 <defs>
  <style type="text/css">*{stroke-linejoin: round; stroke-linecap: butt}</style>
 </defs>
 <g id="figure_1">
  <g id="patch_1">
   <path d="M 0 2117.57 
L 2981.6 2117.57 
L 2981.6 0 
L 0 0 
z
" style="fill: #ffffff"/>
  </g>
  <g id="axes_1">
   <g id="patch_2">
    <path d="M 514.95 1912.02 
L 2974.4 1912.02 
L 2974.4 7.2 
L 514.95 7.2 
z
" style="fill: #ffffff"/>
   </g>
   <g id="matplotlib.axis_1">
    <g id="xtick_1">
     <g id="line2d_1">
      <defs>
       <path id="mdeda18b448" d="M 0 0 
L 0 3.5 
" style="stroke: #000000; stroke-width: 0.8"/>
      </defs>
      <g>
       <use xlink:href="#mdeda18b448" x="619.744863" y="1912.02" style="stroke: #000000; stroke-width: 0.8"/>
      </g>
     </g>
     <g id="text_1">
      <!-- 0 -->
      <g transform="translate(568.844863 2077.095) scale(1.6 -1.6)">
       <defs>
        <path id="DejaVuSans-30" d="M 2034 4250 
Q 1547 4250 1301 3770 
Q 1056 3291 1056 2328 
Q 1056 1369 1301 889 
Q 1547 409 2034 409 
Q 2525 409 2770 889 
Q 3016 1369 3016 2328 
Q 3016 3291 2770 3770 
Q 2525 4250 2034 4250 
z
M 2034 4750 
Q 2819 4750 3233 4129 
Q 3647 3509 3647 2328 
Q 3647 1150 3233 529 
Q 2819 -91 2034 -91 
Q 1250 -91 836 529 
Q 422 1150 422 2328 
Q 422 3509 836 4129 
Q 1250 4750 2034 4750 
z
" transform="scale(0.015625)"/>
       </defs>
       <use xlink:href="#DejaVuSans-30"/>
      </g>
     </g>
    </g>
    <g id="xtick_2">
     <g id="line2d_2">
      <g>
       <use xlink:href="#mdeda18b448" x="1118.883609" y="1912.02" style="stroke: #000000; stroke-width: 0.8"/>
      </g>
     </g>
     <g id="text_2">
      <!-- 200 -->
      <g transform="translate(966.183609 2077.095) scale(1.6 -1.6)">
       <defs>
        <path id="DejaVuSans-32" d="M 1228 531 
L 3431 531 
L 3431 0 
L 469 0 
L 469 531 
Q 828 903 1448 1529 
Q 2069 2156 2228 2338 
Q 2531 2678 2651 2914 
Q 2772 3150 2772 3378 
Q 2772 3750 2511 3984 
Q 2250 4219 1831 4219 
Q 1534 4219 1204 4116 
Q 875 4013 500 3803 
L 500 4441 
Q 881 4594 1212 4672 
Q 1544 4750 1819 4750 
Q 2544 4750 2975 4387 
Q 3406 4025 3406 3419 
Q 3406 3131 3298 2873 
Q 3191 2616 2906 2266 
Q 2828 2175 2409 1742 
Q 1991 1309 1228 531 
z
" transform="scale(0.015625)"/>
       </defs>
       <use xlink:href="#DejaVuSans-32"/>
       <use xlink:href="#DejaVuSans-30" transform="translate(63.623047 0)"/>
       <use xlink:href="#DejaVuSans-30" transform="translate(127.246094 0)"/>
      </g>
     </g>
    </g>
    <g id="xtick_3">
     <g id="line2d_3">
      <g>
       <use xlink:href="#mdeda18b448" x="1618.022354" y="1912.02" style="stroke: #000000; stroke-width: 0.8"/>
      </g>
     </g>
     <g id="text_3">
      <!-- 400 -->
      <g transform="translate(1465.322354 2077.095) scale(1.6 -1.6)">
       <defs>
        <path id="DejaVuSans-34" d="M 2419 4116 
L 825 1625 
L 2419 1625 
L 2419 4116 
z
M 2253 4666 
L 3047 4666 
L 3047 1625 
L 3713 1625 
L 3713 1100 
L 3047 1100 
L 3047 0 
L 2419 0 
L 2419 1100 
L 313 1100 
L 313 1709 
L 2253 4666 
z
" transform="scale(0.015625)"/>
       </defs>
       <use xlink:href="#DejaVuSans-34"/>
       <use xlink:href="#DejaVuSans-30" transform="translate(63.623047 0)"/>
       <use xlink:href="#DejaVuSans-30" transform="translate(127.246094 0)"/>
      </g>
     </g>
    </g>
    <g id="xtick_4">
     <g id="line2d_4">
      <g>
       <use xlink:href="#mdeda18b448" x="2117.1611" y="1912.02" style="stroke: #000000; stroke-width: 0.8"/>
      </g>
     </g>
     <g id="text_4">
      <!-- 600 -->
      <g transform="translate(1964.4611 2077.095) scale(1.6 -1.6)">
       <defs>
        <path id="DejaVuSans-36" d="M 2113 2584 
Q 1688 2584 1439 2293 
Q 1191 2003 1191 1497 
Q 1191 994 1439 701 
Q 1688 409 2113 409 
Q 2538 409 2786 701 
Q 3034 994 3034 1497 
Q 3034 2003 2786 2293 
Q 2538 2584 2113 2584 
z
M 3366 4563 
L 3366 3988 
Q 3128 4100 2886 4159 
Q 2644 4219 2406 4219 
Q 1781 4219 1451 3797 
Q 1122 3375 1075 2522 
Q 1259 2794 1537 2939 
Q 1816 3084 2150 3084 
Q 2853 3084 3261 2657 
Q 3669 2231 3669 1497 
Q 3669 778 3244 343 
Q 2819 -91 2113 -91 
Q 1303 -91 875 529 
Q 447 1150 447 2328 
Q 447 3434 972 4092 
Q 1497 4750 2381 4750 
Q 2619 4750 2861 4703 
Q 3103 4656 3366 4563 
z
" transform="scale(0.015625)"/>
       </defs>
       <use xlink:href="#DejaVuSans-36"/>
       <use xlink:href="#DejaVuSans-30" transform="translate(63.623047 0)"/>
       <use xlink:href="#DejaVuSans-30" transform="translate(127.246094 0)"/>
      </g>
     </g>
    </g>
    <g id="xtick_5">
     <g id="line2d_5">
      <g>
       <use xlink:href="#mdeda18b448" x="2616.299846" y="1912.02" style="stroke: #000000; stroke-width: 0.8"/>
      </g>
     </g>
     <g id="text_5">
      <!-- 800 -->
      <g transform="translate(2463.599846 2077.095) scale(1.6 -1.6)">
       <defs>
        <path id="DejaVuSans-38" d="M 2034 2216 
Q 1584 2216 1326 1975 
Q 1069 1734 1069 1313 
Q 1069 891 1326 650 
Q 1584 409 2034 409 
Q 2484 409 2743 651 
Q 3003 894 3003 1313 
Q 3003 1734 2745 1975 
Q 2488 2216 2034 2216 
z
M 1403 2484 
Q 997 2584 770 2862 
Q 544 3141 544 3541 
Q 544 4100 942 4425 
Q 1341 4750 2034 4750 
Q 2731 4750 3128 4425 
Q 3525 4100 3525 3541 
Q 3525 3141 3298 2862 
Q 3072 2584 2669 2484 
Q 3125 2378 3379 2068 
Q 3634 1759 3634 1313 
Q 3634 634 3220 271 
Q 2806 -91 2034 -91 
Q 1263 -91 848 271 
Q 434 634 434 1313 
Q 434 1759 690 2068 
Q 947 2378 1403 2484 
z
M 1172 3481 
Q 1172 3119 1398 2916 
Q 1625 2713 2034 2713 
Q 2441 2713 2670 2916 
Q 2900 3119 2900 3481 
Q 2900 3844 2670 4047 
Q 2441 4250 2034 4250 
Q 1625 4250 1398 4047 
Q 1172 3844 1172 3481 
z
" transform="scale(0.015625)"/>
       </defs>
       <use xlink:href="#DejaVuSans-38"/>
       <use xlink:href="#DejaVuSans-30" transform="translate(63.623047 0)"/>
       <use xlink:href="#DejaVuSans-30" transform="translate(127.246094 0)"/>
      </g>
     </g>
    </g>
   </g>
   <g id="matplotlib.axis_2">
    <g id="ytick_1">
     <g id="line2d_6">
      <path d="M 514.95 1912.02 
L 2974.4 1912.02 
" clip-path="url(#p258cabce9f)" style="fill: none; stroke-dasharray: 2.96,1.28; stroke-dashoffset: 0; stroke: #b0b0b0; stroke-width: 0.8"/>
     </g>
     <g id="line2d_7">
      <defs>
       <path id="m993194246d" d="M 0 0 
L -3.5 0 
" style="stroke: #000000; stroke-width: 0.8"/>
      </defs>
      <g>
       <use xlink:href="#m993194246d" x="514.95" y="1912.02" style="stroke: #000000; stroke-width: 0.8"/>
      </g>
     </g>
     <g id="text_6">
      <!-- 0 -->
      <g transform="translate(369.65 1972.8075) scale(1.6 -1.6)">
       <use xlink:href="#DejaVuSans-30"/>
      </g>
     </g>
    </g>
    <g id="ytick_2">
     <g id="line2d_8">
      <path d="M 514.95 1469.800297 
L 2974.4 1469.800297 
" clip-path="url(#p258cabce9f)" style="fill: none; stroke-dasharray: 2.96,1.28; stroke-dashoffset: 0; stroke: #b0b0b0; stroke-width: 0.8"/>
     </g>
     <g id="line2d_9">
      <g>
       <use xlink:href="#m993194246d" x="514.95" y="1469.800297" style="stroke: #000000; stroke-width: 0.8"/>
      </g>
     </g>
     <g id="text_7">
      <!-- 25 -->
      <g transform="translate(267.85 1530.587797) scale(1.6 -1.6)">
       <defs>
        <path id="DejaVuSans-35" d="M 691 4666 
L 3169 4666 
L 3169 4134 
L 1269 4134 
L 1269 2991 
Q 1406 3038 1543 3061 
Q 1681 3084 1819 3084 
Q 2600 3084 3056 2656 
Q 3513 2228 3513 1497 
Q 3513 744 3044 326 
Q 2575 -91 1722 -91 
Q 1428 -91 1123 -41 
Q 819 9 494 109 
L 494 744 
Q 775 591 1075 516 
Q 1375 441 1709 441 
Q 2250 441 2565 725 
Q 2881 1009 2881 1497 
Q 2881 1984 2565 2268 
Q 2250 2553 1709 2553 
Q 1456 2553 1204 2497 
Q 953 2441 691 2322 
L 691 4666 
z
" transform="scale(0.015625)"/>
       </defs>
       <use xlink:href="#DejaVuSans-32"/>
       <use xlink:href="#DejaVuSans-35" transform="translate(63.623047 0)"/>
      </g>
     </g>
    </g>
    <g id="ytick_3">
     <g id="line2d_10">
      <path d="M 514.95 1027.580594 
L 2974.4 1027.580594 
" clip-path="url(#p258cabce9f)" style="fill: none; stroke-dasharray: 2.96,1.28; stroke-dashoffset: 0; stroke: #b0b0b0; stroke-width: 0.8"/>
     </g>
     <g id="line2d_11">
      <g>
       <use xlink:href="#m993194246d" x="514.95" y="1027.580594" style="stroke: #000000; stroke-width: 0.8"/>
      </g>
     </g>
     <g id="text_8">
      <!-- 50 -->
      <g transform="translate(267.85 1088.368094) scale(1.6 -1.6)">
       <use xlink:href="#DejaVuSans-35"/>
       <use xlink:href="#DejaVuSans-30" transform="translate(63.623047 0)"/>
      </g>
     </g>
    </g>
    <g id="ytick_4">
     <g id="line2d_12">
      <path d="M 514.95 585.36089 
L 2974.4 585.36089 
" clip-path="url(#p258cabce9f)" style="fill: none; stroke-dasharray: 2.96,1.28; stroke-dashoffset: 0; stroke: #b0b0b0; stroke-width: 0.8"/>
     </g>
     <g id="line2d_13">
      <g>
       <use xlink:href="#m993194246d" x="514.95" y="585.36089" style="stroke: #000000; stroke-width: 0.8"/>
      </g>
     </g>
     <g id="text_9">
      <!-- 75 -->
      <g transform="translate(267.85 646.14839) scale(1.6 -1.6)">
       <defs>
        <path id="DejaVuSans-37" d="M 525 4666 
L 3525 4666 
L 3525 4397 
L 1831 0 
L 1172 0 
L 2766 4134 
L 525 4134 
L 525 4666 
z
" transform="scale(0.015625)"/>
       </defs>
       <use xlink:href="#DejaVuSans-37"/>
       <use xlink:href="#DejaVuSans-35" transform="translate(63.623047 0)"/>
      </g>
     </g>
    </g>
    <g id="ytick_5">
     <g id="line2d_14">
      <path d="M 514.95 143.141187 
L 2974.4 143.141187 
" clip-path="url(#p258cabce9f)" style="fill: none; stroke-dasharray: 2.96,1.28; stroke-dashoffset: 0; stroke: #b0b0b0; stroke-width: 0.8"/>
     </g>
     <g id="line2d_15">
      <g>
       <use xlink:href="#m993194246d" x="514.95" y="143.141187" style="stroke: #000000; stroke-width: 0.8"/>
      </g>
     </g>
     <g id="text_10">
      <!-- 100 -->
      <g transform="translate(166.05 203.928687) scale(1.6 -1.6)">
       <defs>
        <path id="DejaVuSans-31" d="M 794 531 
L 1825 531 
L 1825 4091 
L 703 3866 
L 703 4441 
L 1819 4666 
L 2450 4666 
L 2450 531 
L 3481 531 
L 3481 0 
L 794 0 
L 794 531 
z
" transform="scale(0.015625)"/>
       </defs>
       <use xlink:href="#DejaVuSans-31"/>
       <use xlink:href="#DejaVuSans-30" transform="translate(63.623047 0)"/>
       <use xlink:href="#DejaVuSans-30" transform="translate(127.246094 0)"/>
      </g>
     </g>
    </g>
    <g id="text_11">
     <!-- Throughput (MB/s) -->
     <g transform="translate(128.775 1704.635) rotate(-90) scale(1.6 -1.6)">
      <defs>
       <path id="DejaVuSans-54" d="M -19 4666 
L 3928 4666 
L 3928 4134 
L 2272 4134 
L 2272 0 
L 1638 0 
L 1638 4134 
L -19 4134 
L -19 4666 
z
" transform="scale(0.015625)"/>
       <path id="DejaVuSans-68" d="M 3513 2113 
L 3513 0 
L 2938 0 
L 2938 2094 
Q 2938 2591 2744 2837 
Q 2550 3084 2163 3084 
Q 1697 3084 1428 2787 
Q 1159 2491 1159 1978 
L 1159 0 
L 581 0 
L 581 4863 
L 1159 4863 
L 1159 2956 
Q 1366 3272 1645 3428 
Q 1925 3584 2291 3584 
Q 2894 3584 3203 3211 
Q 3513 2838 3513 2113 
z
" transform="scale(0.015625)"/>
       <path id="DejaVuSans-72" d="M 2631 2963 
Q 2534 3019 2420 3045 
Q 2306 3072 2169 3072 
Q 1681 3072 1420 2755 
Q 1159 2438 1159 1844 
L 1159 0 
L 581 0 
L 581 3500 
L 1159 3500 
L 1159 2956 
Q 1341 3275 1631 3429 
Q 1922 3584 2338 3584 
Q 2397 3584 2469 3576 
Q 2541 3569 2628 3553 
L 2631 2963 
z
" transform="scale(0.015625)"/>
       <path id="DejaVuSans-6f" d="M 1959 3097 
Q 1497 3097 1228 2736 
Q 959 2375 959 1747 
Q 959 1119 1226 758 
Q 1494 397 1959 397 
Q 2419 397 2687 759 
Q 2956 1122 2956 1747 
Q 2956 2369 2687 2733 
Q 2419 3097 1959 3097 
z
M 1959 3584 
Q 2709 3584 3137 3096 
Q 3566 2609 3566 1747 
Q 3566 888 3137 398 
Q 2709 -91 1959 -91 
Q 1206 -91 779 398 
Q 353 888 353 1747 
Q 353 2609 779 3096 
Q 1206 3584 1959 3584 
z
" transform="scale(0.015625)"/>
       <path id="DejaVuSans-75" d="M 544 1381 
L 544 3500 
L 1119 3500 
L 1119 1403 
Q 1119 906 1312 657 
Q 1506 409 1894 409 
Q 2359 409 2629 706 
Q 2900 1003 2900 1516 
L 2900 3500 
L 3475 3500 
L 3475 0 
L 2900 0 
L 2900 538 
Q 2691 219 2414 64 
Q 2138 -91 1772 -91 
Q 1169 -91 856 284 
Q 544 659 544 1381 
z
M 1991 3584 
L 1991 3584 
z
" transform="scale(0.015625)"/>
       <path id="DejaVuSans-67" d="M 2906 1791 
Q 2906 2416 2648 2759 
Q 2391 3103 1925 3103 
Q 1463 3103 1205 2759 
Q 947 2416 947 1791 
Q 947 1169 1205 825 
Q 1463 481 1925 481 
Q 2391 481 2648 825 
Q 2906 1169 2906 1791 
z
M 3481 434 
Q 3481 -459 3084 -895 
Q 2688 -1331 1869 -1331 
Q 1566 -1331 1297 -1286 
Q 1028 -1241 775 -1147 
L 775 -588 
Q 1028 -725 1275 -790 
Q 1522 -856 1778 -856 
Q 2344 -856 2625 -561 
Q 2906 -266 2906 331 
L 2906 616 
Q 2728 306 2450 153 
Q 2172 0 1784 0 
Q 1141 0 747 490 
Q 353 981 353 1791 
Q 353 2603 747 3093 
Q 1141 3584 1784 3584 
Q 2172 3584 2450 3431 
Q 2728 3278 2906 2969 
L 2906 3500 
L 3481 3500 
L 3481 434 
z
" transform="scale(0.015625)"/>
       <path id="DejaVuSans-70" d="M 1159 525 
L 1159 -1331 
L 581 -1331 
L 581 3500 
L 1159 3500 
L 1159 2969 
Q 1341 3281 1617 3432 
Q 1894 3584 2278 3584 
Q 2916 3584 3314 3078 
Q 3713 2572 3713 1747 
Q 3713 922 3314 415 
Q 2916 -91 2278 -91 
Q 1894 -91 1617 61 
Q 1341 213 1159 525 
z
M 3116 1747 
Q 3116 2381 2855 2742 
Q 2594 3103 2138 3103 
Q 1681 3103 1420 2742 
Q 1159 2381 1159 1747 
Q 1159 1113 1420 752 
Q 1681 391 2138 391 
Q 2594 391 2855 752 
Q 3116 1113 3116 1747 
z
" transform="scale(0.015625)"/>
       <path id="DejaVuSans-74" d="M 1172 4494 
L 1172 3500 
L 2356 3500 
L 2356 3053 
L 1172 3053 
L 1172 1153 
Q 1172 725 1289 603 
Q 1406 481 1766 481 
L 2356 481 
L 2356 0 
L 1766 0 
Q 1100 0 847 248 
Q 594 497 594 1153 
L 594 3053 
L 172 3053 
L 172 3500 
L 594 3500 
L 594 4494 
L 1172 4494 
z
" transform="scale(0.015625)"/>
       <path id="DejaVuSans-20" transform="scale(0.015625)"/>
       <path id="DejaVuSans-28" d="M 1984 4856 
Q 1566 4138 1362 3434 
Q 1159 2731 1159 2009 
Q 1159 1288 1364 580 
Q 1569 -128 1984 -844 
L 1484 -844 
Q 1016 -109 783 600 
Q 550 1309 550 2009 
Q 550 2706 781 3412 
Q 1013 4119 1484 4856 
L 1984 4856 
z
" transform="scale(0.015625)"/>
       <path id="DejaVuSans-4d" d="M 628 4666 
L 1569 4666 
L 2759 1491 
L 3956 4666 
L 4897 4666 
L 4897 0 
L 4281 0 
L 4281 4097 
L 3078 897 
L 2444 897 
L 1241 4097 
L 1241 0 
L 628 0 
L 628 4666 
z
" transform="scale(0.015625)"/>
       <path id="DejaVuSans-42" d="M 1259 2228 
L 1259 519 
L 2272 519 
Q 2781 519 3026 730 
Q 3272 941 3272 1375 
Q 3272 1813 3026 2020 
Q 2781 2228 2272 2228 
L 1259 2228 
z
M 1259 4147 
L 1259 2741 
L 2194 2741 
Q 2656 2741 2882 2914 
Q 3109 3088 3109 3444 
Q 3109 3797 2882 3972 
Q 2656 4147 2194 4147 
L 1259 4147 
z
M 628 4666 
L 2241 4666 
Q 2963 4666 3353 4366 
Q 3744 4066 3744 3513 
Q 3744 3084 3544 2831 
Q 3344 2578 2956 2516 
Q 3422 2416 3680 2098 
Q 3938 1781 3938 1306 
Q 3938 681 3513 340 
Q 3088 0 2303 0 
L 628 0 
L 628 4666 
z
" transform="scale(0.015625)"/>
       <path id="DejaVuSans-2f" d="M 1625 4666 
L 2156 4666 
L 531 -594 
L 0 -594 
L 1625 4666 
z
" transform="scale(0.015625)"/>
       <path id="DejaVuSans-73" d="M 2834 3397 
L 2834 2853 
Q 2591 2978 2328 3040 
Q 2066 3103 1784 3103 
Q 1356 3103 1142 2972 
Q 928 2841 928 2578 
Q 928 2378 1081 2264 
Q 1234 2150 1697 2047 
L 1894 2003 
Q 2506 1872 2764 1633 
Q 3022 1394 3022 966 
Q 3022 478 2636 193 
Q 2250 -91 1575 -91 
Q 1294 -91 989 -36 
Q 684 19 347 128 
L 347 722 
Q 666 556 975 473 
Q 1284 391 1588 391 
Q 1994 391 2212 530 
Q 2431 669 2431 922 
Q 2431 1156 2273 1281 
Q 2116 1406 1581 1522 
L 1381 1569 
Q 847 1681 609 1914 
Q 372 2147 372 2553 
Q 372 3047 722 3315 
Q 1072 3584 1716 3584 
Q 2034 3584 2315 3537 
Q 2597 3491 2834 3397 
z
" transform="scale(0.015625)"/>
       <path id="DejaVuSans-29" d="M 513 4856 
L 1013 4856 
Q 1481 4119 1714 3412 
Q 1947 2706 1947 2009 
Q 1947 1309 1714 600 
Q 1481 -109 1013 -844 
L 513 -844 
Q 928 -128 1133 580 
Q 1338 1288 1338 2009 
Q 1338 2731 1133 3434 
Q 928 4138 513 4856 
z
" transform="scale(0.015625)"/>
      </defs>
      <use xlink:href="#DejaVuSans-54"/>
      <use xlink:href="#DejaVuSans-68" transform="translate(61.083984 0)"/>
      <use xlink:href="#DejaVuSans-72" transform="translate(124.462891 0)"/>
      <use xlink:href="#DejaVuSans-6f" transform="translate(163.326172 0)"/>
      <use xlink:href="#DejaVuSans-75" transform="translate(224.507812 0)"/>
      <use xlink:href="#DejaVuSans-67" transform="translate(287.886719 0)"/>
      <use xlink:href="#DejaVuSans-68" transform="translate(351.363281 0)"/>
      <use xlink:href="#DejaVuSans-70" transform="translate(414.742188 0)"/>
      <use xlink:href="#DejaVuSans-75" transform="translate(478.21875 0)"/>
      <use xlink:href="#DejaVuSans-74" transform="translate(541.597656 0)"/>
      <use xlink:href="#DejaVuSans-20" transform="translate(580.806641 0)"/>
      <use xlink:href="#DejaVuSans-28" transform="translate(612.59375 0)"/>
      <use xlink:href="#DejaVuSans-4d" transform="translate(651.607422 0)"/>
      <use xlink:href="#DejaVuSans-42" transform="translate(737.886719 0)"/>
      <use xlink:href="#DejaVuSans-2f" transform="translate(806.490234 0)"/>
      <use xlink:href="#DejaVuSans-73" transform="translate(840.181641 0)"/>
      <use xlink:href="#DejaVuSans-29" transform="translate(892.28125 0)"/>
     </g>
    </g>
   </g>
   <g id="line2d_16">
    <path d="M 634.087495 1770.509695 
L 647.16991 1204.468475 
L 686.062714 1204.468475 
L 702.226281 1628.99939 
L 715.205554 1204.468475 
L 741.132092 1204.468475 
L 767.643867 1628.99939 
L 780.628282 1204.468475 
L 806.561134 1204.468475 
L 832.056697 1628.99939 
L 845.023947 1204.468475 
L 870.946198 1204.468475 
L 896.607948 1628.99939 
L 909.604126 1204.468475 
L 935.509769 1204.468475 
L 961.41441 1628.99939 
L 974.365744 1204.468475 
L 1000.286816 1204.468475 
L 1026.298808 1628.99939 
L 1039.262007 1204.468475 
L 1065.205581 1204.468475 
L 1091.029496 1628.99939 
L 1103.981946 1204.468475 
L 1129.916346 1204.468475 
L 1155.309465 1628.99939 
L 1168.266845 1204.468475 
L 1194.197042 1204.468475 
L 1220.423725 1628.99939 
L 1233.37796 1204.468475 
L 1259.310258 1204.468475 
L 1284.452054 1628.99939 
L 1297.417204 1204.468475 
L 1323.337521 1204.468475 
L 1349.757108 1628.99939 
L 1362.715404 1204.468475 
L 1388.669262 1204.468475 
L 1414.377171 1628.99939 
L 1427.332939 1204.468475 
L 1453.255318 1204.468475 
L 1478.607475 1628.99939 
L 1491.597009 1204.468475 
L 1517.518985 1204.468475 
L 1543.757822 1628.99939 
L 1556.715186 1204.468475 
L 1582.651123 1204.468475 
L 1608.002319 1628.99939 
L 1620.971143 1204.468475 
L 1646.880659 1204.468475 
L 1672.588942 1628.99939 
L 1685.563224 1204.468475 
L 1711.48876 1204.468475 
L 1738.199737 1628.99939 
L 1751.183912 1204.468475 
L 1777.148485 1204.468475 
L 1803.024078 1628.99939 
L 1815.997135 1204.468475 
L 1841.951799 1204.468475 
L 1867.006745 1770.509695 
L 1879.987004 1204.468475 
L 1918.887786 1204.468475 
L 1933.57325 1628.99939 
L 1946.539986 1204.468475 
L 1972.478839 1204.468475 
L 1998.199373 1628.99939 
L 2011.172262 1204.468475 
L 2037.128763 1204.468475 
L 2062.212062 1628.99939 
L 2075.17866 1204.468475 
L 2101.09819 1204.468475 
L 2126.913044 1628.99939 
L 2139.86499 1204.468475 
L 2165.818945 1204.468475 
L 2192.398827 1628.99939 
L 2205.354933 1204.468475 
L 2231.290841 1204.468475 
L 2257.387403 1628.99939 
L 2270.347088 1204.468475 
L 2296.287617 1204.468475 
L 2321.675999 1628.99939 
L 2334.642099 1204.468475 
L 2360.576911 1204.468475 
L 2385.59702 1628.99939 
L 2398.560846 1204.468475 
L 2424.502433 1204.468475 
L 2449.938302 1628.99939 
L 2462.896161 1204.468475 
L 2488.80842 1204.468475 
L 2513.785124 1628.99939 
L 2526.765565 1204.468475 
L 2552.691921 1204.468475 
L 2578.694736 1628.99939 
L 2591.648995 1204.468475 
L 2617.552982 1204.468475 
L 2642.422555 1628.99939 
L 2655.417214 1204.468475 
L 2681.328851 1204.468475 
L 2707.495746 1628.99939 
L 2720.451955 1204.468475 
L 2746.398915 1204.468475 
L 2771.983799 1628.99939 
L 2784.946444 1204.468475 
L 2810.864469 1204.468475 
L 2836.684588 1628.99939 
L 2849.651081 1204.468475 
L 2862.606818 1204.468475 
L 2862.606818 1204.468475 
" clip-path="url(#p258cabce9f)" style="fill: none; stroke: #1f77b4; stroke-width: 12; stroke-linecap: square"/>
    <defs>
     <path id="m43048f5014" d="M 0 10 
C 2.652031 10 5.195799 8.946337 7.071068 7.071068 
C 8.946337 5.195799 10 2.652031 10 0 
C 10 -2.652031 8.946337 -5.195799 7.071068 -7.071068 
C 5.195799 -8.946337 2.652031 -10 0 -10 
C -2.652031 -10 -5.195799 -8.946337 -7.071068 -7.071068 
C -8.946337 -5.195799 -10 -2.652031 -10 0 
C -10 2.652031 -8.946337 5.195799 -7.071068 7.071068 
C -5.195799 8.946337 -2.652031 10 0 10 
z
" style="stroke: #1f77b4"/>
    </defs>
    <g clip-path="url(#p258cabce9f)">
     <use xlink:href="#m43048f5014" x="634.087495" y="1770.509695" style="fill: #1f77b4; stroke: #1f77b4"/>
     <use xlink:href="#m43048f5014" x="647.16991" y="1204.468475" style="fill: #1f77b4; stroke: #1f77b4"/>
     <use xlink:href="#m43048f5014" x="660.133948" y="1204.468475" style="fill: #1f77b4; stroke: #1f77b4"/>
     <use xlink:href="#m43048f5014" x="673.099036" y="1204.468475" style="fill: #1f77b4; stroke: #1f77b4"/>
     <use xlink:href="#m43048f5014" x="686.062714" y="1204.468475" style="fill: #1f77b4; stroke: #1f77b4"/>
     <use xlink:href="#m43048f5014" x="702.226281" y="1628.99939" style="fill: #1f77b4; stroke: #1f77b4"/>
     <use xlink:href="#m43048f5014" x="715.205554" y="1204.468475" style="fill: #1f77b4; stroke: #1f77b4"/>
     <use xlink:href="#m43048f5014" x="728.157894" y="1204.468475" style="fill: #1f77b4; stroke: #1f77b4"/>
     <use xlink:href="#m43048f5014" x="741.132092" y="1204.468475" style="fill: #1f77b4; stroke: #1f77b4"/>
     <use xlink:href="#m43048f5014" x="767.643867" y="1628.99939" style="fill: #1f77b4; stroke: #1f77b4"/>
     <use xlink:href="#m43048f5014" x="780.628282" y="1204.468475" style="fill: #1f77b4; stroke: #1f77b4"/>
     <use xlink:href="#m43048f5014" x="793.603727" y="1204.468475" style="fill: #1f77b4; stroke: #1f77b4"/>
     <use xlink:href="#m43048f5014" x="806.561134" y="1204.468475" style="fill: #1f77b4; stroke: #1f77b4"/>
     <use xlink:href="#m43048f5014" x="832.056697" y="1628.99939" style="fill: #1f77b4; stroke: #1f77b4"/>
     <use xlink:href="#m43048f5014" x="845.023947" y="1204.468475" style="fill: #1f77b4; stroke: #1f77b4"/>
     <use xlink:href="#m43048f5014" x="857.992071" y="1204.468475" style="fill: #1f77b4; stroke: #1f77b4"/>
     <use xlink:href="#m43048f5014" x="870.946198" y="1204.468475" style="fill: #1f77b4; stroke: #1f77b4"/>
     <use xlink:href="#m43048f5014" x="896.607948" y="1628.99939" style="fill: #1f77b4; stroke: #1f77b4"/>
     <use xlink:href="#m43048f5014" x="909.604126" y="1204.468475" style="fill: #1f77b4; stroke: #1f77b4"/>
     <use xlink:href="#m43048f5014" x="922.556775" y="1204.468475" style="fill: #1f77b4; stroke: #1f77b4"/>
     <use xlink:href="#m43048f5014" x="935.509769" y="1204.468475" style="fill: #1f77b4; stroke: #1f77b4"/>
     <use xlink:href="#m43048f5014" x="961.41441" y="1628.99939" style="fill: #1f77b4; stroke: #1f77b4"/>
     <use xlink:href="#m43048f5014" x="974.365744" y="1204.468475" style="fill: #1f77b4; stroke: #1f77b4"/>
     <use xlink:href="#m43048f5014" x="987.314649" y="1204.468475" style="fill: #1f77b4; stroke: #1f77b4"/>
     <use xlink:href="#m43048f5014" x="1000.286816" y="1204.468475" style="fill: #1f77b4; stroke: #1f77b4"/>
     <use xlink:href="#m43048f5014" x="1026.298808" y="1628.99939" style="fill: #1f77b4; stroke: #1f77b4"/>
     <use xlink:href="#m43048f5014" x="1039.262007" y="1204.468475" style="fill: #1f77b4; stroke: #1f77b4"/>
     <use xlink:href="#m43048f5014" x="1052.218559" y="1204.468475" style="fill: #1f77b4; stroke: #1f77b4"/>
     <use xlink:href="#m43048f5014" x="1065.205581" y="1204.468475" style="fill: #1f77b4; stroke: #1f77b4"/>
     <use xlink:href="#m43048f5014" x="1091.029496" y="1628.99939" style="fill: #1f77b4; stroke: #1f77b4"/>
     <use xlink:href="#m43048f5014" x="1103.981946" y="1204.468475" style="fill: #1f77b4; stroke: #1f77b4"/>
     <use xlink:href="#m43048f5014" x="1116.931353" y="1204.468475" style="fill: #1f77b4; stroke: #1f77b4"/>
     <use xlink:href="#m43048f5014" x="1129.916346" y="1204.468475" style="fill: #1f77b4; stroke: #1f77b4"/>
     <use xlink:href="#m43048f5014" x="1155.309465" y="1628.99939" style="fill: #1f77b4; stroke: #1f77b4"/>
     <use xlink:href="#m43048f5014" x="1168.266845" y="1204.468475" style="fill: #1f77b4; stroke: #1f77b4"/>
     <use xlink:href="#m43048f5014" x="1181.219898" y="1204.468475" style="fill: #1f77b4; stroke: #1f77b4"/>
     <use xlink:href="#m43048f5014" x="1194.197042" y="1204.468475" style="fill: #1f77b4; stroke: #1f77b4"/>
     <use xlink:href="#m43048f5014" x="1220.423725" y="1628.99939" style="fill: #1f77b4; stroke: #1f77b4"/>
     <use xlink:href="#m43048f5014" x="1233.37796" y="1204.468475" style="fill: #1f77b4; stroke: #1f77b4"/>
     <use xlink:href="#m43048f5014" x="1246.355849" y="1204.468475" style="fill: #1f77b4; stroke: #1f77b4"/>
     <use xlink:href="#m43048f5014" x="1259.310258" y="1204.468475" style="fill: #1f77b4; stroke: #1f77b4"/>
     <use xlink:href="#m43048f5014" x="1284.452054" y="1628.99939" style="fill: #1f77b4; stroke: #1f77b4"/>
     <use xlink:href="#m43048f5014" x="1297.417204" y="1204.468475" style="fill: #1f77b4; stroke: #1f77b4"/>
     <use xlink:href="#m43048f5014" x="1310.389945" y="1204.468475" style="fill: #1f77b4; stroke: #1f77b4"/>
     <use xlink:href="#m43048f5014" x="1323.337521" y="1204.468475" style="fill: #1f77b4; stroke: #1f77b4"/>
     <use xlink:href="#m43048f5014" x="1349.757108" y="1628.99939" style="fill: #1f77b4; stroke: #1f77b4"/>
     <use xlink:href="#m43048f5014" x="1362.715404" y="1204.468475" style="fill: #1f77b4; stroke: #1f77b4"/>
     <use xlink:href="#m43048f5014" x="1375.693465" y="1204.468475" style="fill: #1f77b4; stroke: #1f77b4"/>
     <use xlink:href="#m43048f5014" x="1388.669262" y="1204.468475" style="fill: #1f77b4; stroke: #1f77b4"/>
     <use xlink:href="#m43048f5014" x="1414.377171" y="1628.99939" style="fill: #1f77b4; stroke: #1f77b4"/>
     <use xlink:href="#m43048f5014" x="1427.332939" y="1204.468475" style="fill: #1f77b4; stroke: #1f77b4"/>
     <use xlink:href="#m43048f5014" x="1440.300891" y="1204.468475" style="fill: #1f77b4; stroke: #1f77b4"/>
     <use xlink:href="#m43048f5014" x="1453.255318" y="1204.468475" style="fill: #1f77b4; stroke: #1f77b4"/>
     <use xlink:href="#m43048f5014" x="1478.607475" y="1628.99939" style="fill: #1f77b4; stroke: #1f77b4"/>
     <use xlink:href="#m43048f5014" x="1491.597009" y="1204.468475" style="fill: #1f77b4; stroke: #1f77b4"/>
     <use xlink:href="#m43048f5014" x="1504.567623" y="1204.468475" style="fill: #1f77b4; stroke: #1f77b4"/>
     <use xlink:href="#m43048f5014" x="1517.518985" y="1204.468475" style="fill: #1f77b4; stroke: #1f77b4"/>
     <use xlink:href="#m43048f5014" x="1543.757822" y="1628.99939" style="fill: #1f77b4; stroke: #1f77b4"/>
     <use xlink:href="#m43048f5014" x="1556.715186" y="1204.468475" style="fill: #1f77b4; stroke: #1f77b4"/>
     <use xlink:href="#m43048f5014" x="1569.671056" y="1204.468475" style="fill: #1f77b4; stroke: #1f77b4"/>
     <use xlink:href="#m43048f5014" x="1582.651123" y="1204.468475" style="fill: #1f77b4; stroke: #1f77b4"/>
     <use xlink:href="#m43048f5014" x="1608.002319" y="1628.99939" style="fill: #1f77b4; stroke: #1f77b4"/>
     <use xlink:href="#m43048f5014" x="1620.971143" y="1204.468475" style="fill: #1f77b4; stroke: #1f77b4"/>
     <use xlink:href="#m43048f5014" x="1633.925923" y="1204.468475" style="fill: #1f77b4; stroke: #1f77b4"/>
     <use xlink:href="#m43048f5014" x="1646.880659" y="1204.468475" style="fill: #1f77b4; stroke: #1f77b4"/>
     <use xlink:href="#m43048f5014" x="1672.588942" y="1628.99939" style="fill: #1f77b4; stroke: #1f77b4"/>
     <use xlink:href="#m43048f5014" x="1685.563224" y="1204.468475" style="fill: #1f77b4; stroke: #1f77b4"/>
     <use xlink:href="#m43048f5014" x="1698.533541" y="1204.468475" style="fill: #1f77b4; stroke: #1f77b4"/>
     <use xlink:href="#m43048f5014" x="1711.48876" y="1204.468475" style="fill: #1f77b4; stroke: #1f77b4"/>
     <use xlink:href="#m43048f5014" x="1738.199737" y="1628.99939" style="fill: #1f77b4; stroke: #1f77b4"/>
     <use xlink:href="#m43048f5014" x="1751.183912" y="1204.468475" style="fill: #1f77b4; stroke: #1f77b4"/>
     <use xlink:href="#m43048f5014" x="1764.150725" y="1204.468475" style="fill: #1f77b4; stroke: #1f77b4"/>
     <use xlink:href="#m43048f5014" x="1777.148485" y="1204.468475" style="fill: #1f77b4; stroke: #1f77b4"/>
     <use xlink:href="#m43048f5014" x="1803.024078" y="1628.99939" style="fill: #1f77b4; stroke: #1f77b4"/>
     <use xlink:href="#m43048f5014" x="1815.997135" y="1204.468475" style="fill: #1f77b4; stroke: #1f77b4"/>
     <use xlink:href="#m43048f5014" x="1828.976548" y="1204.468475" style="fill: #1f77b4; stroke: #1f77b4"/>
     <use xlink:href="#m43048f5014" x="1841.951799" y="1204.468475" style="fill: #1f77b4; stroke: #1f77b4"/>
     <use xlink:href="#m43048f5014" x="1867.006745" y="1770.509695" style="fill: #1f77b4; stroke: #1f77b4"/>
     <use xlink:href="#m43048f5014" x="1879.987004" y="1204.468475" style="fill: #1f77b4; stroke: #1f77b4"/>
     <use xlink:href="#m43048f5014" x="1892.952891" y="1204.468475" style="fill: #1f77b4; stroke: #1f77b4"/>
     <use xlink:href="#m43048f5014" x="1905.911178" y="1204.468475" style="fill: #1f77b4; stroke: #1f77b4"/>
     <use xlink:href="#m43048f5014" x="1918.887786" y="1204.468475" style="fill: #1f77b4; stroke: #1f77b4"/>
     <use xlink:href="#m43048f5014" x="1933.57325" y="1628.99939" style="fill: #1f77b4; stroke: #1f77b4"/>
     <use xlink:href="#m43048f5014" x="1946.539986" y="1204.468475" style="fill: #1f77b4; stroke: #1f77b4"/>
     <use xlink:href="#m43048f5014" x="1959.514763" y="1204.468475" style="fill: #1f77b4; stroke: #1f77b4"/>
     <use xlink:href="#m43048f5014" x="1972.478839" y="1204.468475" style="fill: #1f77b4; stroke: #1f77b4"/>
     <use xlink:href="#m43048f5014" x="1998.199373" y="1628.99939" style="fill: #1f77b4; stroke: #1f77b4"/>
     <use xlink:href="#m43048f5014" x="2011.172262" y="1204.468475" style="fill: #1f77b4; stroke: #1f77b4"/>
     <use xlink:href="#m43048f5014" x="2024.150924" y="1204.468475" style="fill: #1f77b4; stroke: #1f77b4"/>
     <use xlink:href="#m43048f5014" x="2037.128763" y="1204.468475" style="fill: #1f77b4; stroke: #1f77b4"/>
     <use xlink:href="#m43048f5014" x="2062.212062" y="1628.99939" style="fill: #1f77b4; stroke: #1f77b4"/>
     <use xlink:href="#m43048f5014" x="2075.17866" y="1204.468475" style="fill: #1f77b4; stroke: #1f77b4"/>
     <use xlink:href="#m43048f5014" x="2088.133429" y="1204.468475" style="fill: #1f77b4; stroke: #1f77b4"/>
     <use xlink:href="#m43048f5014" x="2101.09819" y="1204.468475" style="fill: #1f77b4; stroke: #1f77b4"/>
     <use xlink:href="#m43048f5014" x="2126.913044" y="1628.99939" style="fill: #1f77b4; stroke: #1f77b4"/>
     <use xlink:href="#m43048f5014" x="2139.86499" y="1204.468475" style="fill: #1f77b4; stroke: #1f77b4"/>
     <use xlink:href="#m43048f5014" x="2152.864468" y="1204.468475" style="fill: #1f77b4; stroke: #1f77b4"/>
     <use xlink:href="#m43048f5014" x="2165.818945" y="1204.468475" style="fill: #1f77b4; stroke: #1f77b4"/>
     <use xlink:href="#m43048f5014" x="2192.398827" y="1628.99939" style="fill: #1f77b4; stroke: #1f77b4"/>
     <use xlink:href="#m43048f5014" x="2205.354933" y="1204.468475" style="fill: #1f77b4; stroke: #1f77b4"/>
     <use xlink:href="#m43048f5014" x="2218.308723" y="1204.468475" style="fill: #1f77b4; stroke: #1f77b4"/>
     <use xlink:href="#m43048f5014" x="2231.290841" y="1204.468475" style="fill: #1f77b4; stroke: #1f77b4"/>
     <use xlink:href="#m43048f5014" x="2257.387403" y="1628.99939" style="fill: #1f77b4; stroke: #1f77b4"/>
     <use xlink:href="#m43048f5014" x="2270.347088" y="1204.468475" style="fill: #1f77b4; stroke: #1f77b4"/>
     <use xlink:href="#m43048f5014" x="2283.305317" y="1204.468475" style="fill: #1f77b4; stroke: #1f77b4"/>
     <use xlink:href="#m43048f5014" x="2296.287617" y="1204.468475" style="fill: #1f77b4; stroke: #1f77b4"/>
     <use xlink:href="#m43048f5014" x="2321.675999" y="1628.99939" style="fill: #1f77b4; stroke: #1f77b4"/>
     <use xlink:href="#m43048f5014" x="2334.642099" y="1204.468475" style="fill: #1f77b4; stroke: #1f77b4"/>
     <use xlink:href="#m43048f5014" x="2347.619863" y="1204.468475" style="fill: #1f77b4; stroke: #1f77b4"/>
     <use xlink:href="#m43048f5014" x="2360.576911" y="1204.468475" style="fill: #1f77b4; stroke: #1f77b4"/>
     <use xlink:href="#m43048f5014" x="2385.59702" y="1628.99939" style="fill: #1f77b4; stroke: #1f77b4"/>
     <use xlink:href="#m43048f5014" x="2398.560846" y="1204.468475" style="fill: #1f77b4; stroke: #1f77b4"/>
     <use xlink:href="#m43048f5014" x="2411.530596" y="1204.468475" style="fill: #1f77b4; stroke: #1f77b4"/>
     <use xlink:href="#m43048f5014" x="2424.502433" y="1204.468475" style="fill: #1f77b4; stroke: #1f77b4"/>
     <use xlink:href="#m43048f5014" x="2449.938302" y="1628.99939" style="fill: #1f77b4; stroke: #1f77b4"/>
     <use xlink:href="#m43048f5014" x="2462.896161" y="1204.468475" style="fill: #1f77b4; stroke: #1f77b4"/>
     <use xlink:href="#m43048f5014" x="2475.857008" y="1204.468475" style="fill: #1f77b4; stroke: #1f77b4"/>
     <use xlink:href="#m43048f5014" x="2488.80842" y="1204.468475" style="fill: #1f77b4; stroke: #1f77b4"/>
     <use xlink:href="#m43048f5014" x="2513.785124" y="1628.99939" style="fill: #1f77b4; stroke: #1f77b4"/>
     <use xlink:href="#m43048f5014" x="2526.765565" y="1204.468475" style="fill: #1f77b4; stroke: #1f77b4"/>
     <use xlink:href="#m43048f5014" x="2539.733925" y="1204.468475" style="fill: #1f77b4; stroke: #1f77b4"/>
     <use xlink:href="#m43048f5014" x="2552.691921" y="1204.468475" style="fill: #1f77b4; stroke: #1f77b4"/>
     <use xlink:href="#m43048f5014" x="2578.694736" y="1628.99939" style="fill: #1f77b4; stroke: #1f77b4"/>
     <use xlink:href="#m43048f5014" x="2591.648995" y="1204.468475" style="fill: #1f77b4; stroke: #1f77b4"/>
     <use xlink:href="#m43048f5014" x="2604.600282" y="1204.468475" style="fill: #1f77b4; stroke: #1f77b4"/>
     <use xlink:href="#m43048f5014" x="2617.552982" y="1204.468475" style="fill: #1f77b4; stroke: #1f77b4"/>
     <use xlink:href="#m43048f5014" x="2642.422555" y="1628.99939" style="fill: #1f77b4; stroke: #1f77b4"/>
     <use xlink:href="#m43048f5014" x="2655.417214" y="1204.468475" style="fill: #1f77b4; stroke: #1f77b4"/>
     <use xlink:href="#m43048f5014" x="2668.37254" y="1204.468475" style="fill: #1f77b4; stroke: #1f77b4"/>
     <use xlink:href="#m43048f5014" x="2681.328851" y="1204.468475" style="fill: #1f77b4; stroke: #1f77b4"/>
     <use xlink:href="#m43048f5014" x="2707.495746" y="1628.99939" style="fill: #1f77b4; stroke: #1f77b4"/>
     <use xlink:href="#m43048f5014" x="2720.451955" y="1204.468475" style="fill: #1f77b4; stroke: #1f77b4"/>
     <use xlink:href="#m43048f5014" x="2733.415395" y="1204.468475" style="fill: #1f77b4; stroke: #1f77b4"/>
     <use xlink:href="#m43048f5014" x="2746.398915" y="1204.468475" style="fill: #1f77b4; stroke: #1f77b4"/>
     <use xlink:href="#m43048f5014" x="2771.983799" y="1628.99939" style="fill: #1f77b4; stroke: #1f77b4"/>
     <use xlink:href="#m43048f5014" x="2784.946444" y="1204.468475" style="fill: #1f77b4; stroke: #1f77b4"/>
     <use xlink:href="#m43048f5014" x="2797.90419" y="1204.468475" style="fill: #1f77b4; stroke: #1f77b4"/>
     <use xlink:href="#m43048f5014" x="2810.864469" y="1204.468475" style="fill: #1f77b4; stroke: #1f77b4"/>
     <use xlink:href="#m43048f5014" x="2836.684588" y="1628.99939" style="fill: #1f77b4; stroke: #1f77b4"/>
     <use xlink:href="#m43048f5014" x="2849.651081" y="1204.468475" style="fill: #1f77b4; stroke: #1f77b4"/>
     <use xlink:href="#m43048f5014" x="2862.606818" y="1204.468475" style="fill: #1f77b4; stroke: #1f77b4"/>
    </g>
   </g>
   <g id="line2d_17">
    <path d="M 642.404281 932.081812 
L 653.809709 982.402108 
L 696.330979 1662.74383 
L 704.2062 566.229113 
L 720.15353 1247.503146 
L 756.693221 1622.044185 
L 777.122683 1392.091534 
L 792.970785 1243.417982 
L 815.455967 1440.436093 
L 828.494335 1099.194349 
L 866.502665 1633.147706 
L 881.67413 1213.506666 
L 898.008792 1261.158908 
L 908.281626 966.544034 
L 914.436215 1113.861367 
L 919.962744 553.542667 
L 926.144781 540.764915 
L 931.624996 535.264472 
L 940.907196 542.493413 
L 946.418912 527.517867 
L 955.533048 529.011424 
L 961.04685 538.707984 
L 970.479998 547.468053 
L 975.941279 543.438586 
L 985.261691 534.737489 
L 990.851503 533.42918 
L 1000.000372 522.336481 
L 1005.508051 556.006323 
L 1014.719166 549.323203 
L 1020.241896 522.841627 
L 1029.409938 542.540945 
L 1034.954949 549.212603 
L 1044.116095 525.780791 
L 1049.732691 534.321903 
L 1059.023696 553.695345 
L 1064.42127 516.784641 
L 1073.687224 547.214326 
L 1079.35055 548.654105 
L 1088.508263 535.003649 
L 1094.062799 555.584008 
L 1103.41249 554.469495 
L 1108.810617 515.23978 
L 1117.981022 544.175371 
L 1123.519233 537.594371 
L 1132.745965 533.408809 
L 1138.281573 532.507363 
L 1147.543519 540.225449 
L 1152.964132 523.574044 
L 1162.376651 555.715967 
L 1167.943755 537.925721 
L 1176.979829 544.162282 
L 1182.610782 553.877865 
L 1191.871495 550.978067 
L 1197.40848 529.557291 
L 1206.605748 530.810034 
L 1212.219062 559.925455 
L 1221.458745 530.651701 
L 1226.930917 550.214572 
L 1236.249322 556.353225 
L 1241.637677 526.029545 
L 1250.889827 535.187321 
L 1256.42202 537.499775 
L 1265.574733 554.977725 
L 1271.278443 551.100189 
L 1280.425542 550.442436 
L 1286.088258 537.388515 
L 1295.380879 553.180261 
L 1300.870649 529.109595 
L 1310.068493 570.395391 
L 1315.627912 539.353945 
L 1324.826693 545.88189 
L 1330.332801 523.431773 
L 1339.730707 572.469385 
L 1345.277391 541.803826 
L 1354.602874 561.191396 
L 1360.155842 546.938606 
L 1369.244726 534.352274 
L 1374.912117 546.853417 
L 1384.054894 550.600056 
L 1389.541717 515.846029 
L 1398.763827 549.001994 
L 1404.310794 537.079735 
L 1413.629768 536.307197 
L 1419.13082 537.690219 
L 1428.400114 566.353167 
L 1433.934749 515.294104 
L 1443.060754 560.824055 
L 1448.551677 519.715715 
L 1457.790068 545.903339 
L 1463.42898 546.843544 
L 1472.783969 551.420743 
L 1478.088491 501.948844 
L 1487.324015 530.826133 
L 1492.711062 521.739205 
L 1502.136469 554.713606 
L 1507.625582 521.107426 
L 1516.90701 576.722685 
L 1522.376221 508.512238 
L 1531.575677 548.093291 
L 1537.104077 518.632449 
L 1546.300265 549.276205 
L 1551.880146 550.570508 
L 1561.221386 556.079106 
L 1566.571348 509.053604 
L 1575.921567 567.708608 
L 1581.537318 532.551305 
L 1590.71527 530.907371 
L 1596.109196 524.980473 
L 1605.387476 531.204796 
L 1610.762252 514.175071 
L 1620.115953 546.791724 
L 1625.644576 531.252123 
" clip-path="url(#p258cabce9f)" style="fill: none; stroke: #ff7f0e; stroke-width: 12; stroke-linecap: square"/>
    <defs>
     <path id="mfaad36e310" d="M 0 10 
C 2.652031 10 5.195799 8.946337 7.071068 7.071068 
C 8.946337 5.195799 10 2.652031 10 0 
C 10 -2.652031 8.946337 -5.195799 7.071068 -7.071068 
C 5.195799 -8.946337 2.652031 -10 0 -10 
C -2.652031 -10 -5.195799 -8.946337 -7.071068 -7.071068 
C -8.946337 -5.195799 -10 -2.652031 -10 0 
C -10 2.652031 -8.946337 5.195799 -7.071068 7.071068 
C -5.195799 8.946337 -2.652031 10 0 10 
z
" style="stroke: #ff7f0e"/>
    </defs>
    <g clip-path="url(#p258cabce9f)">
     <use xlink:href="#mfaad36e310" x="642.404281" y="932.081812" style="fill: #ff7f0e; stroke: #ff7f0e"/>
     <use xlink:href="#mfaad36e310" x="653.809709" y="982.402108" style="fill: #ff7f0e; stroke: #ff7f0e"/>
     <use xlink:href="#mfaad36e310" x="696.330979" y="1662.74383" style="fill: #ff7f0e; stroke: #ff7f0e"/>
     <use xlink:href="#mfaad36e310" x="704.2062" y="566.229113" style="fill: #ff7f0e; stroke: #ff7f0e"/>
     <use xlink:href="#mfaad36e310" x="720.15353" y="1247.503146" style="fill: #ff7f0e; stroke: #ff7f0e"/>
     <use xlink:href="#mfaad36e310" x="756.693221" y="1622.044185" style="fill: #ff7f0e; stroke: #ff7f0e"/>
     <use xlink:href="#mfaad36e310" x="777.122683" y="1392.091534" style="fill: #ff7f0e; stroke: #ff7f0e"/>
     <use xlink:href="#mfaad36e310" x="792.970785" y="1243.417982" style="fill: #ff7f0e; stroke: #ff7f0e"/>
     <use xlink:href="#mfaad36e310" x="815.455967" y="1440.436093" style="fill: #ff7f0e; stroke: #ff7f0e"/>
     <use xlink:href="#mfaad36e310" x="828.494335" y="1099.194349" style="fill: #ff7f0e; stroke: #ff7f0e"/>
     <use xlink:href="#mfaad36e310" x="866.502665" y="1633.147706" style="fill: #ff7f0e; stroke: #ff7f0e"/>
     <use xlink:href="#mfaad36e310" x="881.67413" y="1213.506666" style="fill: #ff7f0e; stroke: #ff7f0e"/>
     <use xlink:href="#mfaad36e310" x="898.008792" y="1261.158908" style="fill: #ff7f0e; stroke: #ff7f0e"/>
     <use xlink:href="#mfaad36e310" x="908.281626" y="966.544034" style="fill: #ff7f0e; stroke: #ff7f0e"/>
     <use xlink:href="#mfaad36e310" x="914.436215" y="1113.861367" style="fill: #ff7f0e; stroke: #ff7f0e"/>
     <use xlink:href="#mfaad36e310" x="919.962744" y="553.542667" style="fill: #ff7f0e; stroke: #ff7f0e"/>
     <use xlink:href="#mfaad36e310" x="926.144781" y="540.764915" style="fill: #ff7f0e; stroke: #ff7f0e"/>
     <use xlink:href="#mfaad36e310" x="931.624996" y="535.264472" style="fill: #ff7f0e; stroke: #ff7f0e"/>
     <use xlink:href="#mfaad36e310" x="940.907196" y="542.493413" style="fill: #ff7f0e; stroke: #ff7f0e"/>
     <use xlink:href="#mfaad36e310" x="946.418912" y="527.517867" style="fill: #ff7f0e; stroke: #ff7f0e"/>
     <use xlink:href="#mfaad36e310" x="955.533048" y="529.011424" style="fill: #ff7f0e; stroke: #ff7f0e"/>
     <use xlink:href="#mfaad36e310" x="961.04685" y="538.707984" style="fill: #ff7f0e; stroke: #ff7f0e"/>
     <use xlink:href="#mfaad36e310" x="970.479998" y="547.468053" style="fill: #ff7f0e; stroke: #ff7f0e"/>
     <use xlink:href="#mfaad36e310" x="975.941279" y="543.438586" style="fill: #ff7f0e; stroke: #ff7f0e"/>
     <use xlink:href="#mfaad36e310" x="985.261691" y="534.737489" style="fill: #ff7f0e; stroke: #ff7f0e"/>
     <use xlink:href="#mfaad36e310" x="990.851503" y="533.42918" style="fill: #ff7f0e; stroke: #ff7f0e"/>
     <use xlink:href="#mfaad36e310" x="1000.000372" y="522.336481" style="fill: #ff7f0e; stroke: #ff7f0e"/>
     <use xlink:href="#mfaad36e310" x="1005.508051" y="556.006323" style="fill: #ff7f0e; stroke: #ff7f0e"/>
     <use xlink:href="#mfaad36e310" x="1014.719166" y="549.323203" style="fill: #ff7f0e; stroke: #ff7f0e"/>
     <use xlink:href="#mfaad36e310" x="1020.241896" y="522.841627" style="fill: #ff7f0e; stroke: #ff7f0e"/>
     <use xlink:href="#mfaad36e310" x="1029.409938" y="542.540945" style="fill: #ff7f0e; stroke: #ff7f0e"/>
     <use xlink:href="#mfaad36e310" x="1034.954949" y="549.212603" style="fill: #ff7f0e; stroke: #ff7f0e"/>
     <use xlink:href="#mfaad36e310" x="1044.116095" y="525.780791" style="fill: #ff7f0e; stroke: #ff7f0e"/>
     <use xlink:href="#mfaad36e310" x="1049.732691" y="534.321903" style="fill: #ff7f0e; stroke: #ff7f0e"/>
     <use xlink:href="#mfaad36e310" x="1059.023696" y="553.695345" style="fill: #ff7f0e; stroke: #ff7f0e"/>
     <use xlink:href="#mfaad36e310" x="1064.42127" y="516.784641" style="fill: #ff7f0e; stroke: #ff7f0e"/>
     <use xlink:href="#mfaad36e310" x="1073.687224" y="547.214326" style="fill: #ff7f0e; stroke: #ff7f0e"/>
     <use xlink:href="#mfaad36e310" x="1079.35055" y="548.654105" style="fill: #ff7f0e; stroke: #ff7f0e"/>
     <use xlink:href="#mfaad36e310" x="1088.508263" y="535.003649" style="fill: #ff7f0e; stroke: #ff7f0e"/>
     <use xlink:href="#mfaad36e310" x="1094.062799" y="555.584008" style="fill: #ff7f0e; stroke: #ff7f0e"/>
     <use xlink:href="#mfaad36e310" x="1103.41249" y="554.469495" style="fill: #ff7f0e; stroke: #ff7f0e"/>
     <use xlink:href="#mfaad36e310" x="1108.810617" y="515.23978" style="fill: #ff7f0e; stroke: #ff7f0e"/>
     <use xlink:href="#mfaad36e310" x="1117.981022" y="544.175371" style="fill: #ff7f0e; stroke: #ff7f0e"/>
     <use xlink:href="#mfaad36e310" x="1123.519233" y="537.594371" style="fill: #ff7f0e; stroke: #ff7f0e"/>
     <use xlink:href="#mfaad36e310" x="1132.745965" y="533.408809" style="fill: #ff7f0e; stroke: #ff7f0e"/>
     <use xlink:href="#mfaad36e310" x="1138.281573" y="532.507363" style="fill: #ff7f0e; stroke: #ff7f0e"/>
     <use xlink:href="#mfaad36e310" x="1147.543519" y="540.225449" style="fill: #ff7f0e; stroke: #ff7f0e"/>
     <use xlink:href="#mfaad36e310" x="1152.964132" y="523.574044" style="fill: #ff7f0e; stroke: #ff7f0e"/>
     <use xlink:href="#mfaad36e310" x="1162.376651" y="555.715967" style="fill: #ff7f0e; stroke: #ff7f0e"/>
     <use xlink:href="#mfaad36e310" x="1167.943755" y="537.925721" style="fill: #ff7f0e; stroke: #ff7f0e"/>
     <use xlink:href="#mfaad36e310" x="1176.979829" y="544.162282" style="fill: #ff7f0e; stroke: #ff7f0e"/>
     <use xlink:href="#mfaad36e310" x="1182.610782" y="553.877865" style="fill: #ff7f0e; stroke: #ff7f0e"/>
     <use xlink:href="#mfaad36e310" x="1191.871495" y="550.978067" style="fill: #ff7f0e; stroke: #ff7f0e"/>
     <use xlink:href="#mfaad36e310" x="1197.40848" y="529.557291" style="fill: #ff7f0e; stroke: #ff7f0e"/>
     <use xlink:href="#mfaad36e310" x="1206.605748" y="530.810034" style="fill: #ff7f0e; stroke: #ff7f0e"/>
     <use xlink:href="#mfaad36e310" x="1212.219062" y="559.925455" style="fill: #ff7f0e; stroke: #ff7f0e"/>
     <use xlink:href="#mfaad36e310" x="1221.458745" y="530.651701" style="fill: #ff7f0e; stroke: #ff7f0e"/>
     <use xlink:href="#mfaad36e310" x="1226.930917" y="550.214572" style="fill: #ff7f0e; stroke: #ff7f0e"/>
     <use xlink:href="#mfaad36e310" x="1236.249322" y="556.353225" style="fill: #ff7f0e; stroke: #ff7f0e"/>
     <use xlink:href="#mfaad36e310" x="1241.637677" y="526.029545" style="fill: #ff7f0e; stroke: #ff7f0e"/>
     <use xlink:href="#mfaad36e310" x="1250.889827" y="535.187321" style="fill: #ff7f0e; stroke: #ff7f0e"/>
     <use xlink:href="#mfaad36e310" x="1256.42202" y="537.499775" style="fill: #ff7f0e; stroke: #ff7f0e"/>
     <use xlink:href="#mfaad36e310" x="1265.574733" y="554.977725" style="fill: #ff7f0e; stroke: #ff7f0e"/>
     <use xlink:href="#mfaad36e310" x="1271.278443" y="551.100189" style="fill: #ff7f0e; stroke: #ff7f0e"/>
     <use xlink:href="#mfaad36e310" x="1280.425542" y="550.442436" style="fill: #ff7f0e; stroke: #ff7f0e"/>
     <use xlink:href="#mfaad36e310" x="1286.088258" y="537.388515" style="fill: #ff7f0e; stroke: #ff7f0e"/>
     <use xlink:href="#mfaad36e310" x="1295.380879" y="553.180261" style="fill: #ff7f0e; stroke: #ff7f0e"/>
     <use xlink:href="#mfaad36e310" x="1300.870649" y="529.109595" style="fill: #ff7f0e; stroke: #ff7f0e"/>
     <use xlink:href="#mfaad36e310" x="1310.068493" y="570.395391" style="fill: #ff7f0e; stroke: #ff7f0e"/>
     <use xlink:href="#mfaad36e310" x="1315.627912" y="539.353945" style="fill: #ff7f0e; stroke: #ff7f0e"/>
     <use xlink:href="#mfaad36e310" x="1324.826693" y="545.88189" style="fill: #ff7f0e; stroke: #ff7f0e"/>
     <use xlink:href="#mfaad36e310" x="1330.332801" y="523.431773" style="fill: #ff7f0e; stroke: #ff7f0e"/>
     <use xlink:href="#mfaad36e310" x="1339.730707" y="572.469385" style="fill: #ff7f0e; stroke: #ff7f0e"/>
     <use xlink:href="#mfaad36e310" x="1345.277391" y="541.803826" style="fill: #ff7f0e; stroke: #ff7f0e"/>
     <use xlink:href="#mfaad36e310" x="1354.602874" y="561.191396" style="fill: #ff7f0e; stroke: #ff7f0e"/>
     <use xlink:href="#mfaad36e310" x="1360.155842" y="546.938606" style="fill: #ff7f0e; stroke: #ff7f0e"/>
     <use xlink:href="#mfaad36e310" x="1369.244726" y="534.352274" style="fill: #ff7f0e; stroke: #ff7f0e"/>
     <use xlink:href="#mfaad36e310" x="1374.912117" y="546.853417" style="fill: #ff7f0e; stroke: #ff7f0e"/>
     <use xlink:href="#mfaad36e310" x="1384.054894" y="550.600056" style="fill: #ff7f0e; stroke: #ff7f0e"/>
     <use xlink:href="#mfaad36e310" x="1389.541717" y="515.846029" style="fill: #ff7f0e; stroke: #ff7f0e"/>
     <use xlink:href="#mfaad36e310" x="1398.763827" y="549.001994" style="fill: #ff7f0e; stroke: #ff7f0e"/>
     <use xlink:href="#mfaad36e310" x="1404.310794" y="537.079735" style="fill: #ff7f0e; stroke: #ff7f0e"/>
     <use xlink:href="#mfaad36e310" x="1413.629768" y="536.307197" style="fill: #ff7f0e; stroke: #ff7f0e"/>
     <use xlink:href="#mfaad36e310" x="1419.13082" y="537.690219" style="fill: #ff7f0e; stroke: #ff7f0e"/>
     <use xlink:href="#mfaad36e310" x="1428.400114" y="566.353167" style="fill: #ff7f0e; stroke: #ff7f0e"/>
     <use xlink:href="#mfaad36e310" x="1433.934749" y="515.294104" style="fill: #ff7f0e; stroke: #ff7f0e"/>
     <use xlink:href="#mfaad36e310" x="1443.060754" y="560.824055" style="fill: #ff7f0e; stroke: #ff7f0e"/>
     <use xlink:href="#mfaad36e310" x="1448.551677" y="519.715715" style="fill: #ff7f0e; stroke: #ff7f0e"/>
     <use xlink:href="#mfaad36e310" x="1457.790068" y="545.903339" style="fill: #ff7f0e; stroke: #ff7f0e"/>
     <use xlink:href="#mfaad36e310" x="1463.42898" y="546.843544" style="fill: #ff7f0e; stroke: #ff7f0e"/>
     <use xlink:href="#mfaad36e310" x="1472.783969" y="551.420743" style="fill: #ff7f0e; stroke: #ff7f0e"/>
     <use xlink:href="#mfaad36e310" x="1478.088491" y="501.948844" style="fill: #ff7f0e; stroke: #ff7f0e"/>
     <use xlink:href="#mfaad36e310" x="1487.324015" y="530.826133" style="fill: #ff7f0e; stroke: #ff7f0e"/>
     <use xlink:href="#mfaad36e310" x="1492.711062" y="521.739205" style="fill: #ff7f0e; stroke: #ff7f0e"/>
     <use xlink:href="#mfaad36e310" x="1502.136469" y="554.713606" style="fill: #ff7f0e; stroke: #ff7f0e"/>
     <use xlink:href="#mfaad36e310" x="1507.625582" y="521.107426" style="fill: #ff7f0e; stroke: #ff7f0e"/>
     <use xlink:href="#mfaad36e310" x="1516.90701" y="576.722685" style="fill: #ff7f0e; stroke: #ff7f0e"/>
     <use xlink:href="#mfaad36e310" x="1522.376221" y="508.512238" style="fill: #ff7f0e; stroke: #ff7f0e"/>
     <use xlink:href="#mfaad36e310" x="1531.575677" y="548.093291" style="fill: #ff7f0e; stroke: #ff7f0e"/>
     <use xlink:href="#mfaad36e310" x="1537.104077" y="518.632449" style="fill: #ff7f0e; stroke: #ff7f0e"/>
     <use xlink:href="#mfaad36e310" x="1546.300265" y="549.276205" style="fill: #ff7f0e; stroke: #ff7f0e"/>
     <use xlink:href="#mfaad36e310" x="1551.880146" y="550.570508" style="fill: #ff7f0e; stroke: #ff7f0e"/>
     <use xlink:href="#mfaad36e310" x="1561.221386" y="556.079106" style="fill: #ff7f0e; stroke: #ff7f0e"/>
     <use xlink:href="#mfaad36e310" x="1566.571348" y="509.053604" style="fill: #ff7f0e; stroke: #ff7f0e"/>
     <use xlink:href="#mfaad36e310" x="1575.921567" y="567.708608" style="fill: #ff7f0e; stroke: #ff7f0e"/>
     <use xlink:href="#mfaad36e310" x="1581.537318" y="532.551305" style="fill: #ff7f0e; stroke: #ff7f0e"/>
     <use xlink:href="#mfaad36e310" x="1590.71527" y="530.907371" style="fill: #ff7f0e; stroke: #ff7f0e"/>
     <use xlink:href="#mfaad36e310" x="1596.109196" y="524.980473" style="fill: #ff7f0e; stroke: #ff7f0e"/>
     <use xlink:href="#mfaad36e310" x="1605.387476" y="531.204796" style="fill: #ff7f0e; stroke: #ff7f0e"/>
     <use xlink:href="#mfaad36e310" x="1610.762252" y="514.175071" style="fill: #ff7f0e; stroke: #ff7f0e"/>
     <use xlink:href="#mfaad36e310" x="1620.115953" y="546.791724" style="fill: #ff7f0e; stroke: #ff7f0e"/>
     <use xlink:href="#mfaad36e310" x="1625.644576" y="531.252123" style="fill: #ff7f0e; stroke: #ff7f0e"/>
    </g>
   </g>
   <g id="line2d_18">
    <path d="M 626.743182 1632.306442 
L 632.384215 345.766126 
L 640.291643 390.259844 
L 649.039421 493.911192 
L 657.544432 96.159275 
L 664.925918 184.135665 
L 673.503555 513.442667 
L 681.461863 246.532831 
L 690.017229 91.167128 
L 697.259188 416.504065 
L 705.20158 202.762582 
L 713.156402 119.682841 
L 721.145736 291.489114 
L 729.653043 406.874886 
L 737.349099 381.316651 
L 746.22509 140.569567 
L 754.481539 332.21133 
L 762.435529 322.857002 
L 770.737921 206.205352 
L 778.69361 166.365098 
L 786.964099 264.179177 
L 794.937126 202.46255 
L 803.440738 234.929611 
L 811.398806 328.196368 
L 819.507424 260.859573 
L 827.489129 163.71462 
L 835.653134 345.933617 
L 843.391863 470.693079 
L 852.264874 256.416868 
L 860.620275 438.344788 
L 868.601149 293.870506 
L 876.577144 252.470453 
L 884.535405 248.895897 
L 892.5315 174.330761 
L 900.388787 147.447541 
L 908.782668 346.972248 
L 917.172381 367.097184 
L 925.124796 284.929738 
L 933.100905 167.24435 
L 941.281525 235.967317 
L 950.051073 171.953371 
L 958.246398 274.326982 
L 966.22008 250.834984 
L 974.50281 457.520516 
L 983.000044 97.316072 
L 990.459557 472.848038 
L 999.327188 252.607164 
L 1007.3053 171.203751 
L 1015.284423 251.151825 
L 1023.276045 219.103639 
L 1031.314877 259.329704 
" clip-path="url(#p258cabce9f)" style="fill: none; stroke: #2ca02c; stroke-width: 12; stroke-linecap: square"/>
    <defs>
     <path id="m98a426ae54" d="M 0 10 
C 2.652031 10 5.195799 8.946337 7.071068 7.071068 
C 8.946337 5.195799 10 2.652031 10 0 
C 10 -2.652031 8.946337 -5.195799 7.071068 -7.071068 
C 5.195799 -8.946337 2.652031 -10 0 -10 
C -2.652031 -10 -5.195799 -8.946337 -7.071068 -7.071068 
C -8.946337 -5.195799 -10 -2.652031 -10 0 
C -10 2.652031 -8.946337 5.195799 -7.071068 7.071068 
C -5.195799 8.946337 -2.652031 10 0 10 
z
" style="stroke: #2ca02c"/>
    </defs>
    <g clip-path="url(#p258cabce9f)">
     <use xlink:href="#m98a426ae54" x="626.743182" y="1632.306442" style="fill: #2ca02c; stroke: #2ca02c"/>
     <use xlink:href="#m98a426ae54" x="632.384215" y="345.766126" style="fill: #2ca02c; stroke: #2ca02c"/>
     <use xlink:href="#m98a426ae54" x="640.291643" y="390.259844" style="fill: #2ca02c; stroke: #2ca02c"/>
     <use xlink:href="#m98a426ae54" x="649.039421" y="493.911192" style="fill: #2ca02c; stroke: #2ca02c"/>
     <use xlink:href="#m98a426ae54" x="657.544432" y="96.159275" style="fill: #2ca02c; stroke: #2ca02c"/>
     <use xlink:href="#m98a426ae54" x="664.925918" y="184.135665" style="fill: #2ca02c; stroke: #2ca02c"/>
     <use xlink:href="#m98a426ae54" x="673.503555" y="513.442667" style="fill: #2ca02c; stroke: #2ca02c"/>
     <use xlink:href="#m98a426ae54" x="681.461863" y="246.532831" style="fill: #2ca02c; stroke: #2ca02c"/>
     <use xlink:href="#m98a426ae54" x="690.017229" y="91.167128" style="fill: #2ca02c; stroke: #2ca02c"/>
     <use xlink:href="#m98a426ae54" x="697.259188" y="416.504065" style="fill: #2ca02c; stroke: #2ca02c"/>
     <use xlink:href="#m98a426ae54" x="705.20158" y="202.762582" style="fill: #2ca02c; stroke: #2ca02c"/>
     <use xlink:href="#m98a426ae54" x="713.156402" y="119.682841" style="fill: #2ca02c; stroke: #2ca02c"/>
     <use xlink:href="#m98a426ae54" x="721.145736" y="291.489114" style="fill: #2ca02c; stroke: #2ca02c"/>
     <use xlink:href="#m98a426ae54" x="729.653043" y="406.874886" style="fill: #2ca02c; stroke: #2ca02c"/>
     <use xlink:href="#m98a426ae54" x="737.349099" y="381.316651" style="fill: #2ca02c; stroke: #2ca02c"/>
     <use xlink:href="#m98a426ae54" x="746.22509" y="140.569567" style="fill: #2ca02c; stroke: #2ca02c"/>
     <use xlink:href="#m98a426ae54" x="754.481539" y="332.21133" style="fill: #2ca02c; stroke: #2ca02c"/>
     <use xlink:href="#m98a426ae54" x="762.435529" y="322.857002" style="fill: #2ca02c; stroke: #2ca02c"/>
     <use xlink:href="#m98a426ae54" x="770.737921" y="206.205352" style="fill: #2ca02c; stroke: #2ca02c"/>
     <use xlink:href="#m98a426ae54" x="778.69361" y="166.365098" style="fill: #2ca02c; stroke: #2ca02c"/>
     <use xlink:href="#m98a426ae54" x="786.964099" y="264.179177" style="fill: #2ca02c; stroke: #2ca02c"/>
     <use xlink:href="#m98a426ae54" x="794.937126" y="202.46255" style="fill: #2ca02c; stroke: #2ca02c"/>
     <use xlink:href="#m98a426ae54" x="803.440738" y="234.929611" style="fill: #2ca02c; stroke: #2ca02c"/>
     <use xlink:href="#m98a426ae54" x="811.398806" y="328.196368" style="fill: #2ca02c; stroke: #2ca02c"/>
     <use xlink:href="#m98a426ae54" x="819.507424" y="260.859573" style="fill: #2ca02c; stroke: #2ca02c"/>
     <use xlink:href="#m98a426ae54" x="827.489129" y="163.71462" style="fill: #2ca02c; stroke: #2ca02c"/>
     <use xlink:href="#m98a426ae54" x="835.653134" y="345.933617" style="fill: #2ca02c; stroke: #2ca02c"/>
     <use xlink:href="#m98a426ae54" x="843.391863" y="470.693079" style="fill: #2ca02c; stroke: #2ca02c"/>
     <use xlink:href="#m98a426ae54" x="852.264874" y="256.416868" style="fill: #2ca02c; stroke: #2ca02c"/>
     <use xlink:href="#m98a426ae54" x="860.620275" y="438.344788" style="fill: #2ca02c; stroke: #2ca02c"/>
     <use xlink:href="#m98a426ae54" x="868.601149" y="293.870506" style="fill: #2ca02c; stroke: #2ca02c"/>
     <use xlink:href="#m98a426ae54" x="876.577144" y="252.470453" style="fill: #2ca02c; stroke: #2ca02c"/>
     <use xlink:href="#m98a426ae54" x="884.535405" y="248.895897" style="fill: #2ca02c; stroke: #2ca02c"/>
     <use xlink:href="#m98a426ae54" x="892.5315" y="174.330761" style="fill: #2ca02c; stroke: #2ca02c"/>
     <use xlink:href="#m98a426ae54" x="900.388787" y="147.447541" style="fill: #2ca02c; stroke: #2ca02c"/>
     <use xlink:href="#m98a426ae54" x="908.782668" y="346.972248" style="fill: #2ca02c; stroke: #2ca02c"/>
     <use xlink:href="#m98a426ae54" x="917.172381" y="367.097184" style="fill: #2ca02c; stroke: #2ca02c"/>
     <use xlink:href="#m98a426ae54" x="925.124796" y="284.929738" style="fill: #2ca02c; stroke: #2ca02c"/>
     <use xlink:href="#m98a426ae54" x="933.100905" y="167.24435" style="fill: #2ca02c; stroke: #2ca02c"/>
     <use xlink:href="#m98a426ae54" x="941.281525" y="235.967317" style="fill: #2ca02c; stroke: #2ca02c"/>
     <use xlink:href="#m98a426ae54" x="950.051073" y="171.953371" style="fill: #2ca02c; stroke: #2ca02c"/>
     <use xlink:href="#m98a426ae54" x="958.246398" y="274.326982" style="fill: #2ca02c; stroke: #2ca02c"/>
     <use xlink:href="#m98a426ae54" x="966.22008" y="250.834984" style="fill: #2ca02c; stroke: #2ca02c"/>
     <use xlink:href="#m98a426ae54" x="974.50281" y="457.520516" style="fill: #2ca02c; stroke: #2ca02c"/>
     <use xlink:href="#m98a426ae54" x="983.000044" y="97.316072" style="fill: #2ca02c; stroke: #2ca02c"/>
     <use xlink:href="#m98a426ae54" x="990.459557" y="472.848038" style="fill: #2ca02c; stroke: #2ca02c"/>
     <use xlink:href="#m98a426ae54" x="999.327188" y="252.607164" style="fill: #2ca02c; stroke: #2ca02c"/>
     <use xlink:href="#m98a426ae54" x="1007.3053" y="171.203751" style="fill: #2ca02c; stroke: #2ca02c"/>
     <use xlink:href="#m98a426ae54" x="1015.284423" y="251.151825" style="fill: #2ca02c; stroke: #2ca02c"/>
     <use xlink:href="#m98a426ae54" x="1023.276045" y="219.103639" style="fill: #2ca02c; stroke: #2ca02c"/>
     <use xlink:href="#m98a426ae54" x="1031.314877" y="259.329704" style="fill: #2ca02c; stroke: #2ca02c"/>
    </g>
   </g>
   <g id="line2d_19">
    <path d="M 1031.314877 1912.02 
L 1031.314877 7.2 
" clip-path="url(#p258cabce9f)" style="fill: none; stroke-dasharray: 7.4,3.2; stroke-dashoffset: 0; stroke: #000000; stroke-width: 2"/>
   </g>
   <g id="line2d_20">
    <path d="M 2862.606818 1912.02 
L 2862.606818 7.2 
" clip-path="url(#p258cabce9f)" style="fill: none; stroke-dasharray: 7.4,3.2; stroke-dashoffset: 0; stroke: #000000; stroke-width: 2"/>
   </g>
   <g id="line2d_21">
    <path d="M 1625.644576 1912.02 
L 1625.644576 7.2 
" clip-path="url(#p258cabce9f)" style="fill: none; stroke-dasharray: 7.4,3.2; stroke-dashoffset: 0; stroke: #000000; stroke-width: 2"/>
   </g>
   <g id="patch_3">
    <path d="M 514.95 1912.02 
L 514.95 7.2 
" style="fill: none; stroke: #000000; stroke-width: 0.8; stroke-linejoin: miter; stroke-linecap: square"/>
   </g>
   <g id="patch_4">
    <path d="M 2974.4 1912.02 
L 2974.4 7.2 
" style="fill: none; stroke: #000000; stroke-width: 0.8; stroke-linejoin: miter; stroke-linecap: square"/>
   </g>
   <g id="patch_5">
    <path d="M 514.95 1912.02 
L 2974.4 1912.02 
" style="fill: none; stroke: #000000; stroke-width: 0.8; stroke-linejoin: miter; stroke-linecap: square"/>
   </g>
   <g id="patch_6">
    <path d="M 514.95 7.2 
L 2974.4 7.2 
" style="fill: none; stroke: #000000; stroke-width: 0.8; stroke-linejoin: miter; stroke-linecap: square"/>
   </g>
  </g>
 </g>
 <defs>
  <clipPath id="p258cabce9f">
   <rect x="514.95" y="7.2" width="2459.45" height="1904.82"/>
  </clipPath>
 </defs>
</svg>
